<svg width="100" height="51" viewBox="0 0 100 51" fill="none" xmlns="http://www.w3.org/2000/svg">
<path d="M23.3223 11.378C23.4499 6.47135 27.6744 4.82503 30.7231 4.82503C34.8528 4.82503 37.6157 7.50753 37.6157 10.7678C37.6157 13.5414 35.6785 14.8518 34.471 15.4923C38.7589 16.8948 38.9814 20.1551 38.9814 21.1609C38.9814 25.1842 35.2651 28.232 30.6588 28.232C28.0857 28.232 25.2268 27.2565 23.7663 25.2145C22.718 23.8434 22.4639 22.1667 22.4006 21.1306H27.1651C27.2917 22.5634 28.4358 24.2087 30.7548 24.2391C33.0421 24.2391 34.2485 22.7152 34.2485 20.825C34.2485 18.5999 32.0572 17.5941 30.2149 17.5941H28.3093V14.2113H29.3575C30.9773 14.2113 32.8829 13.3279 32.8829 11.4074C32.8829 10.0363 32.0572 8.81694 30.5323 8.81694C28.5307 8.81694 28.0551 10.3712 27.9908 11.377L23.3223 11.378Z" fill="url(#paint0_linear_157_13015)"/>
<path d="M54.3771 5.25204L49.9617 11.1958C49.6443 11.6532 49.2942 12.0792 48.9451 12.567C49.1993 12.4445 50.0883 12.232 50.8191 12.232C54.4088 12.232 58.2832 14.8841 58.2832 19.8515C58.2832 24.8189 54.3445 28.2329 49.5167 28.2329C46.6262 28.2329 44.0847 27.1664 42.5925 25.3066C41.1636 23.7523 40.6236 21.5576 40.6236 19.8505C40.6236 17.4736 41.6402 15.553 42.7517 13.9077L48.9135 5.25204H54.3771ZM45.2932 20.2481C45.2932 22.6564 47.1988 24.241 49.3585 24.241C51.7091 24.241 53.5514 22.5036 53.5514 20.2481C53.5514 17.9927 51.7724 16.2249 49.3901 16.2249C47.2937 16.2249 45.2922 17.7488 45.2922 20.2178L45.2932 20.2481Z" fill="url(#paint1_linear_157_13015)"/>
<path d="M60.0939 13.1154C60.0939 6.5928 65.6525 4.82503 68.5746 4.82503C71.8775 4.82503 76.9921 6.9581 76.9921 13.0537V20.0033C76.9921 26.1596 71.9102 28.2329 68.6379 28.2329C65.3657 28.2329 60.0939 26.1606 60.0939 20.0033V13.1154ZM64.8267 20.1257C64.8267 22.1677 65.9699 24.2401 68.543 24.2401C71.1161 24.2401 72.2593 21.8631 72.2593 20.1257V12.9332C72.2593 11.6532 71.751 8.8189 68.5114 8.8189C65.875 8.8189 64.8267 10.9833 64.8267 12.9636V20.1257Z" fill="url(#paint2_linear_157_13015)"/>
<path d="M81.4596 18.1846C89.6943 20.3794 94.7966 23.4291 94.7966 26.7992C94.7966 32.0182 82.5619 36.4665 65.4198 38.1638V43.1057C85.4871 41.1058 100 35.3099 100 28.4739C100 23.6485 92.7696 19.3403 81.4596 16.5216V18.1846Z" fill="url(#paint3_linear_157_13015)"/>
<path d="M52.2011 38.8856C51.4713 38.8953 50.7385 38.9012 49.9995 38.9012C25.2595 38.9012 5.20337 33.4833 5.20337 26.8001C5.20337 23.4291 10.3057 20.3804 18.5404 18.1856V16.5236C7.23042 19.3422 0 23.6495 0 28.4749C0 36.967 22.3863 43.8519 49.9995 43.8519C50.7374 43.8519 51.4713 43.8451 52.2011 43.8353V50.0122L61.7402 40.6954L52.2011 32.739V38.8856Z" fill="url(#paint4_linear_157_13015)"/>
<path d="M82.6966 0.921265C80.2266 0.921265 78.0434 2.68217 78.0434 5.40874V5.42049C78.0434 7.6985 79.9622 9.7591 82.6844 9.7591C85.4065 9.7591 87.3611 7.75727 87.3611 5.34018C87.3611 2.9231 85.383 0.921265 82.6966 0.921265ZM80.0929 5.32941C80.0929 3.97004 81.0952 2.69392 82.7089 2.69392C84.3225 2.69392 85.3136 4.05329 85.3136 5.34997C85.3136 6.64666 84.3542 7.98546 82.7201 7.98546C81.086 7.98546 80.0939 6.75145 80.0939 5.3392L80.0929 5.32941Z" fill="url(#paint5_linear_157_13015)"/>
<defs>
<linearGradient id="paint0_linear_157_13015" x1="76.9157" y1="2.8464" x2="60.8383" y2="58.9131" gradientUnits="userSpaceOnUse">
<stop stop-color="#966E45"/>
<stop offset="0.5" stop-color="#D6B587"/>
<stop offset="1" stop-color="#895A2E"/>
</linearGradient>
<linearGradient id="paint1_linear_157_13015" x1="76.9157" y1="2.8464" x2="60.8383" y2="58.9131" gradientUnits="userSpaceOnUse">
<stop stop-color="#966E45"/>
<stop offset="0.5" stop-color="#D6B587"/>
<stop offset="1" stop-color="#895A2E"/>
</linearGradient>
<linearGradient id="paint2_linear_157_13015" x1="76.9157" y1="2.8464" x2="60.8383" y2="58.9131" gradientUnits="userSpaceOnUse">
<stop stop-color="#966E45"/>
<stop offset="0.5" stop-color="#D6B587"/>
<stop offset="1" stop-color="#895A2E"/>
</linearGradient>
<linearGradient id="paint3_linear_157_13015" x1="76.9157" y1="2.8464" x2="60.8383" y2="58.9131" gradientUnits="userSpaceOnUse">
<stop stop-color="#966E45"/>
<stop offset="0.5" stop-color="#D6B587"/>
<stop offset="1" stop-color="#895A2E"/>
</linearGradient>
<linearGradient id="paint4_linear_157_13015" x1="76.9157" y1="2.8464" x2="60.8383" y2="58.9131" gradientUnits="userSpaceOnUse">
<stop stop-color="#966E45"/>
<stop offset="0.5" stop-color="#D6B587"/>
<stop offset="1" stop-color="#895A2E"/>
</linearGradient>
<linearGradient id="paint5_linear_157_13015" x1="76.9157" y1="2.8464" x2="60.8383" y2="58.9131" gradientUnits="userSpaceOnUse">
<stop stop-color="#966E45"/>
<stop offset="0.5" stop-color="#D6B587"/>
<stop offset="1" stop-color="#895A2E"/>
</linearGradient>
</defs>
</svg>
