<?xml version="1.0" encoding="UTF-8"?><svg id="Layer_1" xmlns="http://www.w3.org/2000/svg" width="360.9" height="144.4" viewBox="0 0 360.9 144.4"><defs><style>.cls-1{fill:#bf1731;fill-rule:evenodd;}.cls-1,.cls-2{stroke-width:0px;}.cls-2{fill:#fff;}</style></defs><path class="cls-1" d="m0,72.3c0,39.9,64.6,72.1,180.5,72.1,115.9,0,180.4-32.4,180.4-72.3C360.9,32.2,296.3,0,180.4,0,64.5,0,0,32.4,0,72.3Z"/><path class="cls-2" d="m247.9,38.2c.3-.9-.4-1.6-1.2-1.6h-10.4c-1.2,0-2.2.8-2.5,1.9l-19,61.8c-.2.8.4,1.7,1.3,1.7h10.2c1.2,0,2.2-.8,2.6-1.9l19-61.7Z"/><path class="cls-2" d="m270.1,38.2c.3-.9-.4-1.6-1.2-1.6h-10.4c-1.2,0-2.2.8-2.5,1.9l-19,61.8c-.2.8.4,1.7,1.3,1.7h10.2c1.2,0,2.2-.8,2.6-1.9l19-61.7Z"/><path class="cls-2" d="m128.4,71.4c9.2-1.9,20.6-.7,20.6-.7.3,0,.5-.2.6-.4l1-3.1c1.9-6.1-6.3-6-7.3-6h0c-7.1,0-16.6,2-18.3,2.6-.7.2-.9-.4-.8-.7.6-1.5,2-4.4,2.7-6,.1-.3.4-.9,1.5-1.3,2.6-1,11.8-3,26-1.8,0,0,14,1.2,10.1,13.8l-9.9,32.2c-.3,1.1-1.4,1.9-2.6,1.9h-23.6c-15.8,0-15.7-7.6-15.8-10.5-.2-5.1,1.4-11.7,7.1-16.5,2.3-1.9,5.2-2.8,8.7-3.5Zm18.8,6.9c0-.3-.2-.7-.5-.7,0,0-11.8-1-15.6,2.1-4,3.3-4.5,10.3-4.5,11,0,0-.3,3.7,4.2,3.7,1.6,0,10.2,0,10.3,0,1.2,0,1.4-.8,1.7-1.7l4.4-14.4Z"/><path class="cls-2" d="m275.2,71.4c9.2-1.9,20.6-.7,20.6-.7.3,0,.5-.2.6-.4l1-3.1c1.9-6.1-6.3-6-7.3-6h0c-7.1,0-16.6,2-18.3,2.6-.7.2-.9-.4-.8-.7.6-1.5,2-4.4,2.7-6,.1-.3.4-.9,1.5-1.3,2.6-1,11.8-3,26-1.8,0,0,14,1.2,10.1,13.8l-9.9,32.2c-.3,1.1-1.4,1.9-2.6,1.9h-23.6c-15.8,0-15.7-7.6-15.8-10.5-.2-5.1,1.4-11.7,7.1-16.5,2.3-1.9,5.2-2.8,8.7-3.5Zm18.8,6.9c0-.3-.2-.7-.5-.7,0,0-11.8-1-15.6,2.1-4,3.3-4.5,10.3-4.5,11,0,0-.3,3.7,4.2,3.7,1.6,0,10.2,0,10.3,0,1.2,0,1.4-.8,1.7-1.7l4.4-14.4Z"/><path class="cls-2" d="m106.9,38.7h-40.3c-.5,0-1.9,0-2.5,1.8l-18,58.5c-.3,1.1.1,2.9,2.2,2.9h40.8c20.8,0,21.4-23.9,21.4-23.9,0-4.2-2.6-7.7-6.3-9.1h0c-.1,0-.2-.2-.2-.3s0-.3.2-.3c2.7-.9,5.1-1.9,7-4h0c5.5-6.1,5.7-15.8,5.7-15.8,0-5.5-4.5-9.9-10-9.9Zm-16.2,49.5c-1.8,3.2-5.2,5.4-9.2,5.4h-16.3c-.4,0-.7-.5-.6-.8l5.9-19.2c0-.2.4-.6.7-.6h19.3c1.7,0,3,1.2,3.4,2.7,0,0,1.1,4.6-3.2,12.4Zm7.7-28.2c-1.5,2.8-4.5,4.7-7.9,4.7h-16.4c-.4,0-.7-.5-.6-.9l4.5-14.5c.8-2.5.6-2.4,2-2.4h18.3c1.4,0,2.6,1,2.9,2.3,0,0,1,3.9-2.8,10.7Z"/><path class="cls-2" d="m220.2,56.1c.3-.9-.4-1.6-1.2-1.6h-10.4c-1.2,0-2.2.8-2.5,1.9l-13.5,43.9c-.2.8.4,1.7,1.3,1.7h10.2c1.2,0,2.2-.8,2.6-1.9l13.5-43.9Z"/><path class="cls-2" d="m224.6,43.1c-.6,3.9-4.3,7.1-8.4,7.1-4.1,0-6.9-3.2-6.4-7.1.6-3.9,4.3-7.1,8.4-7.1,4.1,0,6.9,3.2,6.4,7.1Z"/><path class="cls-2" d="m201.3,54.7c-4.6-1.7-10.2,1.6-12,2.7-.4.3-.5.1-.4,0l.7-2.2c.1-.5-.2-.8-.5-.8-.2,0-10.1,0-11,0s-2.2.8-2.5,1.8l-13.6,44c-.2.8.4,1.7,1.3,1.7h10.2c1.2,0,2.3-.8,2.6-1.9l9.3-30.2c.6-1.9,2.8-9.5,13-6.7.6.1,1.2.1,1.4-.6.3-1,2-6.6,2-6.6.2-.7-.4-1-.6-1.1Z"/><path class="cls-2" d="m323.5,54.4c-4.2,0-7.6,3.4-7.6,7.5h0c0,4.1,3.3,7.5,7.5,7.5s7.6-3.4,7.6-7.5h0c0-4.1-3.3-7.5-7.5-7.5Zm6.1,7.5c0,3.4-2.6,6.1-6.1,6.1s-6.1-2.7-6.1-6.1h0c0-3.4,2.6-6.2,6.1-6.2s6.1,2.7,6.1,6.1h0Zm-5.6-4.2h-2.7c-.5,0-.9.4-.9.9v6.4c0,.5.4.9.9.9s.9-.4.9-.9v-1.8h1.4l1.9,2.3c.2.3.4.4.8.4s.8-.4.8-.9,0-.4-.2-.6l-1.3-1.6c1-.4,1.6-1.2,1.6-2.4h0c0-.8-.2-1.4-.7-1.8-.6-.6-1.4-.9-2.5-.9Zm1.4,2.8c0,.7-.5,1.1-1.4,1.1h-1.8v-2.4h1.7c.9,0,1.4.4,1.4,1.2h0Z"/><path class="cls-2" d="m125.6,10.9c3.6-.3,6,1.5,6.3,5.2l.3,3.3c.3,3.7-1.7,5.9-5.3,6.2l-2.8.2c-.7,0-1.4-.4-1.4-1.2l-1.1-12.1c0-.7.5-1.3,1.2-1.4l2.8-.3Zm-1.8,2.3l.9,10.5,2-.2c2.3-.2,3.4-1.6,3.2-3.9l-.3-3.4c-.2-2.3-1.6-3.4-3.8-3.2l-2,.2Z"/><path class="cls-2" d="m147,10l5.1,12.5c0,.2.1.3.1.4,0,.6-.4,1.1-1,1.1-.5,0-.9-.2-1.1-.7l-1.1-2.9-5.2.3-.8,3c-.1.5-.5.7-1,.8-.6,0-1.1-.4-1.1-1,0-.1,0-.3,0-.4l3.7-13c.2-.5.6-.8,1.1-.9.5,0,1,.2,1.2.7Zm-2.6,8.8l3.9-.2-2.3-5.9-1.6,6.1Z"/><path class="cls-2" d="m163.4,9.7l.3,11.7h5.5c.6-.1,1.1.3,1.1.9,0,.6-.4,1.1-1,1.1l-6.4.2c-.7,0-1.3-.6-1.4-1.2l-.3-12.5c0-.7.5-1.1,1.1-1.1.6,0,1.1.4,1.1,1.1Z"/><path class="cls-2" d="m186.9,9.6v12.9c0,.6-.6,1.1-1.2,1.1-.6,0-1.1-.4-1.1-1.1v-11.3c0,0-1.8,1.1-1.8,1.1-.2.1-.4.2-.6.2-.6,0-1-.4-1-1,0-.4.1-.7.5-.9l3.4-1.9c.2-.1.4-.2.6-.2.7,0,1.2.5,1.2,1.2Z"/><path class="cls-2" d="m205.5,12.9c0,1.3-.8,2.4-1.8,3,1.3.8,2,2.1,1.9,3.6,0,2.7-2,4.4-4.8,4.3-2.7,0-4.6-1.9-4.5-4.6,0-1.4.8-2.8,2.2-3.4-1-.7-1.6-1.9-1.6-3.1,0-2.4,1.8-4,4.4-4,2.6,0,4.2,1.8,4.2,4.2Zm-7,6.4c0,1.5.9,2.5,2.4,2.5,1.5,0,2.5-.8,2.6-2.4,0-1.5-.9-2.5-2.4-2.5-1.5,0-2.5.9-2.6,2.4Zm.6-6.6c0,1.3.8,2.2,2.1,2.2,1.2,0,2.2-.8,2.2-2.1,0-1.3-.8-2.1-2.1-2.2-1.3,0-2.2.8-2.2,2.1Z"/><path class="cls-2" d="m238.1,11.1c.7,0,1.1.5,1.1,1.2,0,.2,0,.4-.1.6l-4,12.7c-.2.4-.6.6-1,.6-.6,0-1.1-.5-1-1.2,0-.1,0-.3.1-.5l3.3-11.5-5.6-.5c-.6,0-1-.6-.9-1.1,0-.6.5-1,1.1-.9l7,.6Z"/><path class="cls-2" d="m221.8,9.8c.7,0,1.1.5,1.1,1.2,0,.2,0,.4-.1.6l-3.7,12.8c-.2.4-.6.6-1,.6-.6,0-1.1-.5-1-1.1,0-.1,0-.3.1-.5l3.1-11.6-5.7-.4c-.6,0-1-.5-1-1.1,0-.6.5-1,1.1-1l7,.4Z"/></svg>