<svg width="90" height="36" viewBox="0 0 90 36" fill="none" xmlns="http://www.w3.org/2000/svg">
<path fill-rule="evenodd" clip-rule="evenodd" d="M0 17.9272C0 27.8122 16.104 35.8131 45.0104 35.7954C73.9168 35.7777 90.0059 27.7532 90 17.8712C89.9941 7.98915 73.8946 -0.0176751 44.9881 2.93041e-05C16.0817 0.0177337 0 8.04521 0 17.9272Z" fill="#BA2031"/>
<path d="M32.7095 3.07319C33.3727 3.02156 33.812 3.35056 33.8683 4.03661L33.9158 4.64151C33.9707 5.31723 33.5938 5.72296 32.9261 5.77607L32.4038 5.81738C32.3725 5.82106 32.3407 5.8185 32.3104 5.80985C32.2801 5.8012 32.2518 5.78662 32.2272 5.76698C32.2026 5.74734 32.1822 5.72302 32.1672 5.69545C32.1522 5.66788 32.1428 5.63761 32.1397 5.6064L31.9601 3.37417C31.9577 3.34268 31.9617 3.31104 31.9718 3.2811C31.9819 3.25116 31.9979 3.22355 32.019 3.19988C32.04 3.17622 32.0656 3.157 32.0942 3.14334C32.1229 3.12969 32.154 3.12189 32.1857 3.1204L32.7095 3.07319ZM32.3801 3.48777L32.5359 5.41903L32.9039 5.38952C33.3267 5.35706 33.5389 5.09445 33.5063 4.68282L33.4558 4.06169C33.4217 3.63826 33.1591 3.42581 32.748 3.45826L32.3801 3.48777Z" fill="white"/>
<path d="M37.2248 2.89467L38.1699 5.21838C38.1804 5.24383 38.1869 5.27068 38.1892 5.29805C38.1909 5.32421 38.1871 5.35043 38.1781 5.37508C38.1691 5.39973 38.1552 5.42229 38.1371 5.44137C38.119 5.46045 38.0972 5.47564 38.073 5.48601C38.0488 5.49638 38.0227 5.5017 37.9963 5.50165C37.9542 5.50531 37.9119 5.49538 37.8758 5.47333C37.8398 5.45128 37.8118 5.41827 37.796 5.37919L37.5942 4.85101L36.6238 4.8997L36.4754 5.44411C36.4649 5.48516 36.4413 5.52171 36.4081 5.5483C36.3749 5.57489 36.334 5.5901 36.2914 5.59165C36.2653 5.59429 36.2388 5.59157 36.2137 5.58368C36.1887 5.57578 36.1655 5.56287 36.1456 5.54573C36.1257 5.5286 36.1096 5.5076 36.0982 5.48404C36.0868 5.46047 36.0803 5.43483 36.0792 5.4087C36.079 5.38073 36.083 5.35288 36.0911 5.32608L36.7989 2.91533C36.8131 2.87144 36.8405 2.83292 36.8773 2.80496C36.9142 2.777 36.9588 2.76094 37.0051 2.75894C37.0514 2.75578 37.0976 2.76719 37.137 2.79156C37.1764 2.81592 37.2071 2.85199 37.2248 2.89467ZM36.7247 4.51758L37.4547 4.48217L37.0348 3.39335L36.7247 4.51758Z" fill="white"/>
<path d="M40.8141 2.82386L40.8646 4.97642L41.8795 4.95281C41.9289 4.95582 41.9754 4.97716 42.0097 5.01261C42.044 5.04807 42.0636 5.09504 42.0648 5.14423C42.0659 5.19342 42.0484 5.24123 42.0157 5.27819C41.9831 5.31515 41.9376 5.33856 41.8884 5.34379L40.7103 5.37034C40.6466 5.37234 40.5847 5.34929 40.538 5.3062C40.4914 5.26311 40.4637 5.20345 40.461 5.14018L40.4061 2.83271C40.4031 2.80471 40.4061 2.77641 40.4147 2.7496C40.4233 2.72279 40.4374 2.69804 40.4561 2.67692C40.4748 2.65581 40.4978 2.63878 40.5234 2.62691C40.5491 2.61505 40.577 2.60861 40.6053 2.60799C40.6336 2.60738 40.6617 2.61261 40.6879 2.62335C40.714 2.63409 40.7377 2.6501 40.7573 2.67039C40.7769 2.69067 40.7921 2.71479 40.8019 2.7412C40.8117 2.76761 40.8158 2.79576 40.8141 2.82386Z" fill="white"/>
<path d="M46.8459 2.79287L46.8296 5.16379C46.8296 5.21662 46.8085 5.26728 46.7709 5.30463C46.7333 5.34198 46.6824 5.36297 46.6292 5.36297C46.5761 5.36297 46.5252 5.34198 46.4876 5.30463C46.45 5.26728 46.4289 5.21662 46.4289 5.16379L46.4438 3.07614L46.0876 3.27089C46.0537 3.29181 46.0148 3.30351 45.9749 3.30483C45.9327 3.3052 45.8917 3.29151 45.8582 3.26594C45.8248 3.24038 45.801 3.20441 45.7906 3.1638C45.7802 3.12319 45.7837 3.08027 45.8007 3.04191C45.8177 3.00355 45.8472 2.97197 45.8844 2.95221L46.5091 2.6055C46.5452 2.58632 46.5853 2.57572 46.6263 2.57452C46.6553 2.57392 46.6841 2.57915 46.711 2.58991C46.7379 2.60067 46.7624 2.61673 46.7829 2.63713C46.8034 2.65753 46.8196 2.68184 46.8304 2.7086C46.8412 2.73537 46.8465 2.76403 46.8459 2.79287Z" fill="white"/>
<path d="M50.8522 3.4081C50.8475 3.52169 50.8144 3.63232 50.7558 3.72996C50.6973 3.8276 50.6151 3.90917 50.5169 3.96727C50.6309 4.03443 50.7248 4.13075 50.7887 4.24621C50.8527 4.36167 50.8843 4.49206 50.8804 4.62381C50.8656 5.12248 50.5065 5.43378 49.9975 5.41903C49.4886 5.40428 49.1473 5.07379 49.1606 4.57512C49.1631 4.44315 49.2017 4.31434 49.2723 4.20256C49.3429 4.09077 49.4428 4.00025 49.5613 3.94071C49.4669 3.87727 49.3902 3.7911 49.3383 3.69023C49.2864 3.58937 49.261 3.47708 49.2645 3.36384C49.2779 2.92123 49.6013 2.61878 50.0791 2.62616C50.5569 2.63353 50.8656 2.95959 50.8522 3.4081ZM49.5583 4.5884C49.561 4.7065 49.6092 4.81906 49.693 4.9028C49.7768 4.98654 49.8898 5.03504 50.0085 5.03826C50.1273 5.04148 50.2428 4.99918 50.331 4.92011C50.4193 4.84104 50.4736 4.73126 50.4827 4.61348C50.4801 4.49538 50.4319 4.38281 50.3481 4.29907C50.2643 4.21534 50.1513 4.16684 50.0325 4.16362C49.9138 4.1604 49.7983 4.20269 49.71 4.28176C49.6218 4.36083 49.5674 4.47062 49.5583 4.5884ZM49.6592 3.37122C49.6548 3.42457 49.6613 3.47826 49.6785 3.52901C49.6956 3.57976 49.7229 3.62651 49.7588 3.6664C49.7948 3.70629 49.8385 3.73848 49.8873 3.76101C49.9361 3.78354 49.9891 3.79594 50.0429 3.79745C50.0967 3.79895 50.1503 3.78954 50.2003 3.76977C50.2504 3.75001 50.2958 3.72031 50.3339 3.68249C50.372 3.64467 50.402 3.59953 50.422 3.54982C50.4419 3.5001 50.4515 3.44686 50.4501 3.39335C50.4532 3.28887 50.4145 3.18743 50.3424 3.11135C50.2704 3.03526 50.1709 2.99075 50.0658 2.98762C49.9607 2.98449 49.8587 3.02299 49.7822 3.09465C49.7056 3.16631 49.6609 3.26527 49.6577 3.36974L49.6592 3.37122Z" fill="white"/>
<path d="M58.2061 3.36974C58.2093 3.34019 58.2065 3.31029 58.1976 3.28189C58.1888 3.25348 58.1742 3.22719 58.1547 3.20464C58.1352 3.18209 58.1113 3.16376 58.0844 3.15079C58.0575 3.13782 58.0282 3.13049 57.9983 3.12926L56.6955 3.02598C56.6451 3.02207 56.5953 3.03821 56.5569 3.07086C56.5185 3.10351 56.4947 3.14999 56.4908 3.20007C56.4868 3.25016 56.5031 3.29975 56.5359 3.33793C56.5687 3.37611 56.6155 3.39976 56.6658 3.40368L57.7535 3.48925L57.1065 5.57394C57.0978 5.60211 57.0938 5.63152 57.0947 5.66099C57.0957 5.68771 57.1026 5.71388 57.1146 5.73777C57.1267 5.76165 57.1438 5.78268 57.1648 5.79945C57.1857 5.81622 57.21 5.82834 57.2361 5.835C57.2621 5.84165 57.2893 5.84269 57.3158 5.83803C57.3564 5.83552 57.3951 5.81967 57.4257 5.79297C57.4563 5.76627 57.4771 5.73023 57.4849 5.6905L58.1986 3.39925C58.2017 3.38956 58.2041 3.37971 58.2061 3.36974Z" fill="white"/>
<path d="M54.6286 3.09827C54.6317 3.06863 54.6285 3.03866 54.6193 3.0103C54.61 2.98193 54.595 2.9558 54.575 2.93358C54.555 2.91135 54.5306 2.89352 54.5033 2.88123C54.4759 2.86894 54.4463 2.86247 54.4164 2.86222L53.1121 2.78845C53.0869 2.78599 53.0615 2.78877 53.0375 2.79659C53.0134 2.80442 52.9913 2.81713 52.9724 2.83392C52.9536 2.8507 52.9385 2.8712 52.928 2.8941C52.9176 2.91701 52.9121 2.94182 52.9118 2.96697C52.9093 2.99207 52.9121 3.0174 52.9199 3.04138C52.9278 3.06536 52.9406 3.08747 52.9574 3.10631C52.9743 3.12515 52.9949 3.14033 53.0179 3.15088C53.041 3.16143 53.0659 3.16713 53.0913 3.16762L54.179 3.22811L53.5854 5.32608C53.5761 5.3541 53.5731 5.38381 53.5765 5.41313C53.5779 5.4397 53.5851 5.46566 53.5974 5.48925C53.6098 5.51284 53.6271 5.53352 53.6482 5.54988C53.6693 5.56625 53.6937 5.57792 53.7197 5.5841C53.7458 5.59029 53.7728 5.59085 53.7991 5.58575C53.8395 5.58292 53.8778 5.56693 53.9081 5.54026C53.9384 5.51358 53.959 5.47772 53.9668 5.43821L54.6286 3.13221C54.6298 3.12093 54.6298 3.10955 54.6286 3.09827Z" fill="white"/>
<path d="M61.8162 9.48219C61.8301 9.43443 61.8326 9.38409 61.8234 9.33521C61.8142 9.28633 61.7937 9.24026 61.7634 9.20068C61.7331 9.16111 61.6939 9.12913 61.649 9.10731C61.6041 9.08548 61.5546 9.07442 61.5046 9.07499H58.9227C58.7814 9.07315 58.6433 9.11706 58.5293 9.20009C58.4153 9.28313 58.3315 9.40078 58.2906 9.53531L53.5424 24.8482C53.5288 24.8979 53.5272 24.9502 53.5377 25.0006C53.5483 25.0511 53.5707 25.0984 53.603 25.1387C53.6354 25.1789 53.6769 25.211 53.7241 25.2323C53.7714 25.2536 53.823 25.2635 53.8748 25.2613H56.4299C56.5729 25.2603 56.7119 25.2141 56.8268 25.1296C56.9417 25.045 57.0267 24.9263 57.0694 24.7906L61.8162 9.48219Z" fill="white"/>
<path d="M67.3464 9.48219C67.3603 9.43443 67.3628 9.38409 67.3536 9.33521C67.3444 9.28633 67.3239 9.24026 67.2936 9.20068C67.2633 9.16111 67.2242 9.12913 67.1792 9.10731C67.1343 9.08548 67.0848 9.07442 67.0348 9.07499H64.453C64.3117 9.07339 64.1737 9.11739 64.0597 9.20039C63.9458 9.28339 63.8619 9.40091 63.8209 9.53531L59.0726 24.8482C59.0587 24.8979 59.0568 24.9503 59.0672 25.0009C59.0776 25.0515 59.1 25.099 59.1325 25.1393C59.1649 25.1796 59.2066 25.2117 59.2539 25.233C59.3013 25.2542 59.3531 25.2639 59.405 25.2613H61.9587C62.1018 25.2603 62.241 25.2143 62.3562 25.1297C62.4714 25.0451 62.5566 24.9264 62.5997 24.7906L67.3464 9.48219Z" fill="white"/>
<path d="M32.0284 17.6956C34.3328 17.2323 37.1698 17.52 37.1698 17.52C37.2045 17.5206 37.2385 17.51 37.2665 17.4898C37.2946 17.4695 37.3154 17.4408 37.3257 17.4079L37.5631 16.6422C38.0305 15.1373 35.9843 15.1668 35.7365 15.1535C33.9559 15.1535 31.5936 15.6522 31.1826 15.7923C31.158 15.8026 31.131 15.806 31.1046 15.8023C31.0782 15.7986 31.0533 15.7879 31.0325 15.7713C31.0116 15.7547 30.9957 15.7328 30.9864 15.7079C30.977 15.6831 30.9746 15.6562 30.9793 15.6301C31.1277 15.2494 31.4734 14.5294 31.6426 14.1547C31.6755 14.0747 31.7273 14.0038 31.7937 13.948C31.8601 13.8923 31.9391 13.8533 32.0239 13.8345C32.6783 13.5955 34.9634 13.0968 38.5023 13.3919C38.5023 13.3919 41.9938 13.687 41.0248 16.8222L38.5513 24.8039C38.5083 24.9388 38.423 25.0565 38.308 25.1399C38.1929 25.2232 38.0541 25.2678 37.9118 25.2672H32.0136C28.0755 25.2672 28.1066 23.3772 28.0814 22.6749C28.0384 21.4224 28.4197 19.7758 29.862 18.5793C30.4184 18.1057 31.1604 17.8711 32.0284 17.6956ZM36.7039 19.4159C36.708 19.3964 36.7081 19.3764 36.7042 19.357C36.7003 19.3375 36.6926 19.3191 36.6813 19.3027C36.6701 19.2863 36.6557 19.2723 36.6389 19.2616C36.6222 19.2509 36.6034 19.2436 36.5837 19.2403C36.5837 19.2403 33.6443 19.0027 32.7035 19.7699C31.7019 20.5829 31.5847 22.3341 31.5847 22.4861C31.5847 22.4861 31.5076 23.4038 32.6234 23.4023H35.186C35.4827 23.4023 35.5287 23.2031 35.5985 22.9789L36.7039 19.4159Z" fill="white"/>
<path d="M68.6181 17.6956C70.9224 17.2323 73.7595 17.52 73.7595 17.52C73.7942 17.5206 73.8281 17.51 73.8562 17.4898C73.8843 17.4695 73.9051 17.4408 73.9153 17.4079L74.1527 16.6422C74.6201 15.1373 72.5739 15.1668 72.3261 15.1535C70.5456 15.1535 68.1833 15.6522 67.7723 15.7923C67.7477 15.8026 67.7207 15.806 67.6943 15.8023C67.6679 15.7986 67.6429 15.7879 67.6221 15.7713C67.6013 15.7547 67.5854 15.7328 67.576 15.7079C67.5667 15.6831 67.5643 15.6562 67.569 15.6301C67.7174 15.2494 68.0631 14.5294 68.2323 14.1547C68.2651 14.0747 68.317 14.0038 68.3834 13.948C68.4498 13.8923 68.5288 13.8533 68.6136 13.8345C69.268 13.5955 71.5531 13.0968 75.092 13.3919C75.092 13.3919 78.5834 13.687 77.6145 16.8222L75.141 24.8039C75.0979 24.9388 75.0127 25.0565 74.8976 25.1399C74.7826 25.2232 74.6438 25.2678 74.5014 25.2672H68.6017C64.6652 25.2672 64.6963 23.3772 64.6711 22.6749C64.6281 21.4224 65.0094 19.7758 66.4517 18.5793C67.0066 18.1057 67.7471 17.8711 68.6181 17.6956ZM73.301 19.4159C73.3051 19.3964 73.3052 19.3764 73.3013 19.357C73.2974 19.3375 73.2896 19.3191 73.2784 19.3027C73.2672 19.2863 73.2528 19.2723 73.236 19.2616C73.2193 19.2509 73.2005 19.2436 73.1808 19.2403C73.1808 19.2403 70.234 19.0027 69.2947 19.7699C68.2916 20.5829 68.1744 22.3341 68.1759 22.4861C68.1759 22.4861 68.0987 23.4038 69.2146 23.4023H71.7771C72.0739 23.4023 72.1199 23.2031 72.1896 22.9789L73.301 19.4159Z" fill="white"/>
<path d="M26.6644 9.5899H16.6263C16.4852 9.57996 16.3452 9.62043 16.2315 9.70401C16.1178 9.78759 16.0379 9.90879 16.006 10.0458L11.513 24.5383C11.4837 24.6231 11.4758 24.7138 11.49 24.8023C11.5042 24.8909 11.5401 24.9746 11.5944 25.0462C11.6488 25.1177 11.72 25.1749 11.8018 25.2126C11.8836 25.2504 11.9735 25.2676 12.0635 25.2627H22.2322C27.4181 25.2627 27.5576 19.3465 27.5576 19.3465C27.5564 18.8559 27.404 18.3775 27.1209 17.9758C26.8378 17.574 26.4377 17.2682 25.9744 17.0995H25.9655C25.9494 17.0949 25.9352 17.0853 25.9251 17.072C25.915 17.0586 25.9095 17.0424 25.9095 17.0258C25.9095 17.0091 25.915 16.9929 25.9251 16.9796C25.9352 16.9662 25.9494 16.9566 25.9655 16.952C26.6495 16.741 27.2371 16.4695 27.7134 15.9664V15.9576C29.0919 14.4542 29.1349 12.0538 29.1349 12.0538C29.1345 11.4017 28.8744 10.7763 28.4113 10.3146C27.9483 9.85281 27.3202 9.59224 26.6644 9.5899ZM22.6135 21.8723C22.3903 22.2809 22.06 22.6219 21.6577 22.859C21.2554 23.0962 20.7961 23.2207 20.3284 23.2194H16.2627C16.2158 23.2094 16.1743 23.182 16.1468 23.1429C16.1193 23.1038 16.1077 23.0557 16.1144 23.0084L17.5878 18.2562C17.6024 18.2195 17.6266 18.1873 17.6579 18.1629C17.6892 18.1385 17.7265 18.1229 17.7659 18.1175H22.5883C22.7843 18.1181 22.9742 18.1855 23.1262 18.3084C23.2783 18.4314 23.3833 18.6026 23.4237 18.7932C23.4237 18.7932 23.6967 19.9175 22.6135 21.8723ZM24.5425 14.8909C24.3495 15.2442 24.0641 15.5392 23.7165 15.7446C23.3689 15.95 22.9719 16.0583 22.5675 16.0579H18.484C18.4583 16.0543 18.4337 16.0452 18.4118 16.0313C18.39 16.0174 18.3714 15.999 18.3573 15.9773C18.3432 15.9556 18.334 15.9311 18.3303 15.9056C18.3265 15.8801 18.3284 15.854 18.3356 15.8292L19.453 12.2293C19.6459 11.6053 19.6013 11.6392 19.95 11.6392H24.5128C24.6811 11.6424 24.8432 11.7025 24.9727 11.8094C25.1021 11.9164 25.1911 12.064 25.225 12.2279C25.225 12.2279 25.4743 13.206 24.541 14.8909H24.5425Z" fill="white"/>
<path d="M54.9134 13.9039C54.9273 13.8561 54.9298 13.8058 54.9206 13.7569C54.9115 13.708 54.8909 13.6619 54.8606 13.6224C54.8303 13.5828 54.7912 13.5508 54.7462 13.529C54.7013 13.5072 54.6519 13.4961 54.6018 13.4967H52.02C51.8787 13.4948 51.7406 13.5387 51.6265 13.6218C51.5125 13.7048 51.4287 13.8225 51.3879 13.957L48.0122 24.8482C47.9982 24.8979 47.9964 24.9503 48.0068 25.0009C48.0172 25.0515 48.0396 25.099 48.072 25.1393C48.1045 25.1796 48.1461 25.2117 48.1935 25.233C48.2409 25.2542 48.2926 25.2639 48.3445 25.2613H50.8952C51.0384 25.2603 51.1776 25.2143 51.2928 25.1297C51.408 25.0451 51.4932 24.9264 51.5363 24.7906L54.9134 13.9039Z" fill="white"/>
<path d="M56.0041 10.689C55.8557 11.6554 54.9209 12.4388 53.9015 12.4374C52.8821 12.4359 52.1728 11.6554 52.3153 10.6831C52.4577 9.71088 53.3985 8.93336 54.4178 8.93483C55.4372 8.93631 56.1465 9.7212 56.0041 10.689Z" fill="white"/>
<path d="M50.1993 13.5734C49.0494 13.15 47.6442 13.9658 47.2124 14.2462C47.1174 14.3096 47.0996 14.2786 47.1115 14.2462L47.2806 13.7077C47.3133 13.5763 47.2391 13.4981 47.1456 13.4981H44.3976C44.2614 13.4992 44.129 13.5424 44.0186 13.6218C43.9083 13.7011 43.8255 13.8126 43.7818 13.9408L40.4016 24.8437C40.3884 24.8931 40.387 24.9449 40.3975 24.995C40.408 25.045 40.4302 25.0919 40.4622 25.132C40.4942 25.172 40.5352 25.204 40.5819 25.2254C40.6286 25.2468 40.6796 25.2571 40.731 25.2554H43.2832C43.4264 25.2554 43.5658 25.2102 43.6815 25.1265C43.7972 25.0427 43.8833 24.9246 43.9272 24.7891L46.2494 17.3002C46.3978 16.8266 46.9438 14.9396 49.4856 15.6315C49.6429 15.6596 49.7824 15.6655 49.8462 15.484C49.9322 15.2317 50.3566 13.8375 50.3566 13.8375C50.3637 13.8099 50.3653 13.7811 50.3613 13.7529C50.3572 13.7247 50.3476 13.6975 50.333 13.673C50.3184 13.6485 50.2991 13.6271 50.2762 13.61C50.2532 13.5929 50.2271 13.5804 50.1993 13.5734Z" fill="white"/>
<path d="M80.4546 13.4878C80.0105 13.4874 79.5845 13.6623 79.2701 13.9741C78.9557 14.2859 78.7786 14.709 78.7778 15.1506V15.1609C78.7792 15.6019 78.9567 16.0243 79.2713 16.3351C79.5859 16.646 80.0118 16.8198 80.4553 16.8185C80.8988 16.8171 81.3236 16.6406 81.6362 16.3278C81.9489 16.015 82.1237 15.5915 82.1224 15.1506V15.1417C82.1228 14.924 82.0799 14.7084 81.9961 14.5073C81.9124 14.3062 81.7895 14.1235 81.6345 13.9698C81.4795 13.8161 81.2954 13.6944 81.0929 13.6116C80.8904 13.5289 80.6735 13.4868 80.4546 13.4878ZM81.8033 15.1506C81.8045 15.5074 81.6631 15.8501 81.4101 16.1033C81.2849 16.2287 81.136 16.3283 80.9721 16.3964C80.8081 16.4646 80.6323 16.4999 80.4546 16.5005C80.2768 16.5011 80.1008 16.4669 79.9363 16.3998C79.7719 16.3327 79.6224 16.2341 79.4963 16.1096C79.2417 15.858 79.098 15.5163 79.0968 15.1594V15.1506C79.0968 14.7937 79.2394 14.4515 79.4932 14.1991C79.747 13.9468 80.0912 13.805 80.4501 13.805C80.809 13.805 81.1532 13.9468 81.407 14.1991C81.6608 14.4515 81.8033 14.7937 81.8033 15.1506ZM80.551 14.2181H79.9575C79.906 14.2185 79.8568 14.239 79.8204 14.2752C79.7841 14.3113 79.7635 14.3603 79.7631 14.4114V15.8219C79.7631 15.8731 79.7836 15.9223 79.82 15.9585C79.8565 15.9948 79.9059 16.0151 79.9575 16.0151C80.0093 16.0148 80.059 15.9944 80.0961 15.9584C80.1332 15.9223 80.1548 15.8734 80.1563 15.8219V15.4176H80.4738L80.8834 15.934C80.9008 15.9619 80.9253 15.9847 80.9546 16C80.9838 16.0153 81.0166 16.0225 81.0496 16.021C81.0985 16.0191 81.1448 15.9983 81.1786 15.9631C81.2123 15.9278 81.231 15.8809 81.2306 15.8322C81.2302 15.7834 81.2123 15.7363 81.1801 15.6994L80.8834 15.3497C80.9931 15.3101 81.0872 15.2366 81.1518 15.14C81.2164 15.0433 81.2482 14.9286 81.2425 14.8127V14.8038C81.2448 14.7328 81.2329 14.6621 81.2074 14.5957C81.182 14.5293 81.1434 14.4687 81.0941 14.4173C81.0213 14.3501 80.9358 14.2979 80.8426 14.2637C80.7494 14.2295 80.6503 14.214 80.551 14.2181ZM80.8478 14.8304C80.8478 14.9779 80.7409 15.0827 80.5421 15.0827H80.1504V14.5634H80.5332C80.7276 14.5634 80.8478 14.6504 80.8478 14.8201V14.8304Z" fill="white"/>
</svg>
