<svg width="20" height="21" viewBox="0 0 20 21" fill="none" xmlns="http://www.w3.org/2000/svg">
<path d="M19 10.7954C19 15.766 14.9706 19.7954 10 19.7954M19 10.7954C19 5.82485 14.9706 1.79541 10 1.79541M19 10.7954H1M10 19.7954C5.02944 19.7954 1 15.766 1 10.7954M10 19.7954C11.6569 19.7954 13 15.766 13 10.7954C13 5.82485 11.6569 1.79541 10 1.79541M10 19.7954C8.34315 19.7954 7 15.766 7 10.7954C7 5.82485 8.34315 1.79541 10 1.79541M1 10.7954C1 5.82485 5.02944 1.79541 10 1.79541" stroke="white" stroke-width="2" stroke-linecap="round" stroke-linejoin="round"/>
</svg>
