<svg width="68" height="41" viewBox="0 0 68 41" fill="none" xmlns="http://www.w3.org/2000/svg">
<path d="M10.801 30.399C10.801 32.896 12.912 35.1738 16.7462 36.8131C20.9651 38.6176 26.9912 39.5706 34.1746 39.5706H34.2263C41.4291 39.5674 47.4713 38.6048 51.6999 36.7909C55.5276 35.1484 57.6387 32.8674 57.6354 30.3672C57.6354 27.8702 55.5244 25.5892 51.6902 23.9499C47.4713 22.1455 41.4453 21.1892 34.2651 21.1892H34.2134C18.0394 21.1988 10.801 25.8211 10.8042 30.3958M34.1713 40.009C26.9524 40.009 20.8778 39.0655 16.604 37.2769C12.5209 35.5678 10.2708 33.1279 10.2708 30.4022C10.2676 24.6457 19.8886 20.7699 34.2069 20.7635H34.2586C41.4776 20.7635 47.5489 21.7071 51.8228 23.4956C55.9059 25.2048 58.1559 27.6478 58.1559 30.3736C58.1559 33.0993 55.9123 35.5455 51.8325 37.2579C47.5522 39.056 41.4614 40.009 34.2198 40.0122H34.1713V40.009Z" fill="white"/>
<path d="M27.4535 23.0223L27.5343 24.0294L27.7282 24.0135C27.9513 23.9944 28.0645 23.861 28.0483 23.645L28.0224 23.3209C28.003 23.0985 27.8673 22.9873 27.6474 23.0064L27.4535 23.0223ZM27.628 22.8063C27.9772 22.7777 28.2099 22.9524 28.239 23.3082L28.2649 23.6227C28.294 23.9754 28.0936 24.1882 27.7412 24.2136L27.4632 24.2359C27.392 24.2422 27.3306 24.1946 27.3241 24.1247L27.2304 22.9588C27.2239 22.8889 27.2789 22.8317 27.35 22.8253L27.628 22.8031V22.8063Z" fill="white"/>
<path d="M29.7488 23.5624L30.1335 23.5433L29.9104 22.9715L29.7456 23.5624H29.7488ZM30.0139 22.7141L30.5117 23.9277C30.5182 23.9468 30.5214 23.9595 30.5214 23.969C30.5214 24.0262 30.4826 24.0738 30.418 24.0738C30.3727 24.0738 30.3275 24.0548 30.3113 24.0103L30.2046 23.7339L29.6906 23.7593L29.613 24.0452C29.6001 24.0897 29.558 24.1183 29.516 24.1183C29.4546 24.1183 29.4061 24.0802 29.4029 24.023C29.4029 24.0135 29.4029 23.9976 29.4093 23.9817L29.7811 22.7268C29.7973 22.676 29.8425 22.6474 29.891 22.6442C29.9395 22.6442 29.988 22.6665 30.0074 22.7141" fill="white"/>
<path d="M31.9116 22.676L31.9374 23.8006L32.4741 23.7879C32.5355 23.7879 32.5775 23.8292 32.5808 23.8864C32.5808 23.9436 32.542 23.9912 32.4806 23.9912L31.8598 24.0039C31.7887 24.0039 31.7305 23.9499 31.7273 23.8832L31.6982 22.6792C31.6982 22.6157 31.7435 22.5712 31.8049 22.5712C31.8631 22.5712 31.9116 22.6125 31.9148 22.676" fill="white"/>
<path d="M35.0959 22.6601L35.0862 23.8991C35.0862 23.9595 35.041 24.0008 34.9796 24.0008C34.9181 24.0008 34.8729 23.9595 34.8729 23.8959L34.8793 22.8063L34.6918 22.9079C34.6757 22.9175 34.653 22.927 34.6336 22.927C34.5722 22.927 34.5334 22.8857 34.5334 22.8285C34.5334 22.7936 34.5464 22.765 34.5851 22.7427L34.9149 22.5616C34.9343 22.5521 34.9569 22.5458 34.9763 22.5458C35.0442 22.5458 35.0927 22.5966 35.0927 22.6633" fill="white"/>
<path d="M36.5831 22.9651C36.5798 23.0858 36.6639 23.1716 36.7867 23.178C36.9096 23.1843 37.0001 23.0985 37.0033 22.9778C37.0066 22.8539 36.9257 22.7713 36.7997 22.7681C36.6736 22.765 36.5863 22.8444 36.5831 22.9651ZM36.5281 23.5973C36.5249 23.7434 36.6186 23.8356 36.7673 23.8387C36.916 23.8419 37.013 23.7561 37.0195 23.61C37.0227 23.4639 36.929 23.3686 36.7803 23.3654C36.6315 23.3622 36.5346 23.4512 36.5281 23.5973ZM37.2135 22.981C37.2102 23.1049 37.1391 23.2097 37.0357 23.2733C37.1617 23.3463 37.2296 23.4766 37.2264 23.6164C37.2199 23.8769 37.0292 24.0389 36.7609 24.0325C36.4925 24.0262 36.3115 23.8515 36.318 23.591C36.3212 23.4512 36.3988 23.3241 36.5281 23.2606C36.4279 23.1938 36.3665 23.0827 36.3697 22.9588C36.3762 22.7237 36.5475 22.5712 36.7997 22.5775C37.0518 22.5839 37.2167 22.7491 37.2102 22.9842" fill="white"/>
<path d="M41.0994 22.9619C41.1058 22.892 41.0573 22.8412 40.9894 22.8349L40.3008 22.7808C40.2394 22.7745 40.1974 22.8158 40.1942 22.873C40.1909 22.927 40.2265 22.9746 40.2879 22.9778L40.8634 23.0223L40.5207 24.112C40.5174 24.1278 40.5142 24.1437 40.5142 24.1564C40.5207 24.22 40.5659 24.2549 40.6306 24.2486C40.6759 24.2454 40.705 24.22 40.7211 24.1755L41.0994 22.981C41.0994 22.981 41.1026 22.9683 41.1026 22.9619" fill="white"/>
<path d="M39.2081 22.8158C39.2114 22.7459 39.1629 22.6951 39.095 22.6919L38.4064 22.6538C38.345 22.6506 38.3029 22.6919 38.2997 22.7459C38.2997 22.7999 38.332 22.8476 38.3935 22.8507L38.9689 22.8825L38.6521 23.9785C38.6488 23.9944 38.6456 24.0103 38.6489 24.023C38.6553 24.0865 38.7038 24.1215 38.7685 24.112C38.8137 24.1056 38.8428 24.0834 38.8558 24.0357L39.2049 22.8317C39.2049 22.8317 39.2049 22.819 39.2081 22.8126" fill="white"/>
<path d="M43.0067 26.1515C43.0423 26.0403 42.9486 25.9387 42.8419 25.9387H41.4776C41.316 25.9387 41.1866 26.0371 41.1446 26.1801L38.6392 34.1763C38.6068 34.278 38.6844 34.3923 38.8137 34.3923H40.1618C40.3202 34.3923 40.456 34.2875 40.5013 34.1477L43.0067 26.1547V26.1515Z" fill="white"/>
<path d="M45.926 26.1515C45.9616 26.0403 45.8678 25.9387 45.7611 25.9387H44.3969C44.2352 25.9387 44.1059 26.0371 44.0639 26.1801L41.5584 34.1763C41.5261 34.278 41.6037 34.3923 41.733 34.3923H43.0811C43.2395 34.3923 43.3753 34.2875 43.4206 34.1477L45.926 26.1547V26.1515Z" fill="white"/>
<path d="M29.7391 31.3393C29.752 31.3012 29.7165 31.2504 29.6744 31.2472C29.6744 31.2472 28.1227 31.1233 27.6248 31.5236C27.0946 31.9493 27.0332 32.8611 27.0332 32.9405C27.0332 32.9405 26.9912 33.4202 27.5828 33.4202C27.7994 33.4202 28.9244 33.4202 28.9373 33.4202C29.0957 33.4202 29.1184 33.3154 29.1539 33.1978L29.7391 31.3362V31.3393ZM27.2692 30.4403C28.488 30.1988 29.9848 30.3482 29.9848 30.3482C30.0236 30.3482 30.0559 30.3227 30.0656 30.291L30.1917 29.8907C30.4374 29.106 29.3576 29.1155 29.2251 29.1124C28.2843 29.1124 27.0364 29.3729 26.8198 29.4459C26.7325 29.4745 26.697 29.3951 26.7131 29.3602C26.7939 29.1632 26.975 28.7851 27.0623 28.585C27.0784 28.5469 27.114 28.4643 27.2627 28.4166C27.6086 28.2927 28.8145 28.0322 30.6863 28.1879C30.6863 28.1879 32.529 28.3404 32.0183 29.9796L30.7122 34.1477C30.6669 34.2907 30.5344 34.3891 30.376 34.3891H27.2627C25.184 34.3891 25.2002 33.4011 25.1872 33.0358C25.1646 32.3814 25.365 31.5236 26.1247 30.8978C26.4222 30.6531 26.8133 30.5324 27.2724 30.4403" fill="white"/>
<path d="M49.0684 31.3393C49.0813 31.3012 49.0457 31.2504 49.0037 31.2472C49.0037 31.2472 47.4519 31.1233 46.9541 31.5236C46.4239 31.9493 46.3625 32.8611 46.3625 32.9405C46.3625 32.9405 46.3204 33.4202 46.912 33.4202C47.1286 33.4202 48.2537 33.4202 48.2666 33.4202C48.425 33.4202 48.4477 33.3154 48.4832 33.1978L49.0684 31.3362V31.3393ZM46.5985 30.4403C47.8172 30.1988 49.3141 30.3482 49.3141 30.3482C49.3529 30.3482 49.3852 30.3227 49.3981 30.291L49.5242 29.8907C49.7699 29.106 48.6901 29.1155 48.5576 29.1124H48.5543C47.6136 29.1124 46.3657 29.3729 46.1491 29.4459C46.0618 29.4745 46.0262 29.3951 46.0424 29.3602C46.1232 29.1632 46.3043 28.7851 46.3916 28.585C46.4077 28.5469 46.4433 28.4643 46.592 28.4166C46.9379 28.2927 48.1438 28.0322 50.0156 28.1879C50.0156 28.1879 51.8583 28.3404 51.3475 29.9796L50.0415 34.1477C49.9962 34.2907 49.8636 34.3891 49.7052 34.3891H46.592C44.51 34.3891 44.5294 33.4011 44.5165 33.0358C44.4939 32.3814 44.6943 31.5236 45.454 30.8978C45.7514 30.6531 46.1426 30.5324 46.6017 30.4403" fill="white"/>
<path d="M23.3122 28.9757C23.1117 29.3379 22.7205 29.5857 22.2679 29.5857H20.1116C20.0631 29.5857 20.0146 29.5253 20.0308 29.4682L20.6192 27.5875C20.7226 27.2602 20.7 27.2825 20.881 27.2825H23.2928C23.4803 27.2825 23.6354 27.4127 23.671 27.5875C23.671 27.5875 23.8003 28.0989 23.3057 28.9789M22.2938 32.6228C22.0643 33.0421 21.6084 33.3249 21.088 33.3249H18.9381C18.8896 33.3249 18.8443 33.255 18.8573 33.2137L19.6364 30.7326C19.6461 30.7008 19.6914 30.6595 19.7302 30.6595H22.2776C22.4942 30.6595 22.6753 30.8088 22.7173 31.0121C22.7173 31.0121 22.866 31.603 22.2938 32.6196M24.434 26.2087H19.1321C19.0706 26.2087 18.8799 26.2087 18.8056 26.447L16.4326 34.0143C16.3874 34.1572 16.452 34.3923 16.7236 34.3923H22.0934C24.8348 34.3923 24.906 31.3044 24.906 31.3044C24.906 30.7643 24.5568 30.3069 24.0686 30.1321H24.0654C24.0654 30.1321 24.0396 30.1099 24.0396 30.094C24.0396 30.0749 24.0525 30.0591 24.0686 30.0559C24.4307 29.9447 24.7411 29.8049 24.9932 29.5412C25.7206 28.7534 25.7433 27.4985 25.7433 27.4985C25.7433 26.7869 25.1549 26.2119 24.4307 26.2119" fill="white"/>
<path d="M39.3601 28.4611C39.3956 28.3499 39.3019 28.2482 39.1952 28.2482H37.8309C37.6693 28.2482 37.54 28.3467 37.498 28.4897L35.7134 34.1763C35.6811 34.278 35.7587 34.3923 35.888 34.3923H37.2361C37.3945 34.3923 37.5303 34.2875 37.5755 34.1477L39.3568 28.4643L39.3601 28.4611Z" fill="white"/>
<path d="M39.9355 26.7837C39.8612 27.2888 39.3633 27.6986 38.8267 27.6986C38.29 27.6986 37.9118 27.2888 37.9893 26.7837C38.0637 26.2786 38.5616 25.8688 39.0982 25.8688C39.6349 25.8688 40.0099 26.2786 39.9355 26.7837Z" fill="white"/>
<path d="M36.8675 28.2895C36.2598 28.0703 35.5194 28.496 35.2899 28.6422C35.2382 28.6739 35.2317 28.6581 35.235 28.6422L35.3255 28.3594C35.3449 28.2895 35.3028 28.2514 35.2543 28.2514H33.8028C33.6541 28.2514 33.5183 28.3531 33.4763 28.4865L31.6917 34.1795C31.6594 34.2811 31.7402 34.3955 31.8663 34.3955H33.2144C33.3761 34.3955 33.5118 34.2907 33.5539 34.1509L34.7791 30.2401C34.8567 29.9923 35.1477 29.0043 36.4893 29.3697C36.5734 29.3856 36.6477 29.3887 36.68 29.2966C36.7253 29.1664 36.9484 28.4357 36.9484 28.4357C36.9807 28.3404 36.8934 28.3054 36.8643 28.2927" fill="white"/>
<path d="M53.5653 29.1124C53.5653 28.7184 53.2582 28.4039 52.854 28.4039C52.4499 28.4039 52.1363 28.7216 52.1363 29.1124C52.1363 29.5063 52.4435 29.8176 52.8508 29.8176C53.2581 29.8176 53.5685 29.4999 53.5685 29.1124M51.965 29.1187C51.965 28.6422 52.3562 28.2451 52.8508 28.2451C53.3454 28.2451 53.7301 28.6358 53.7301 29.1092C53.7301 29.5857 53.339 29.9828 52.8443 29.9828C52.3497 29.9828 51.9618 29.5921 51.9618 29.1187" fill="white"/>
<path d="M53.0609 28.944C53.0609 29.0202 53.006 29.0774 52.8993 29.0774H52.6924V28.8074H52.8961C52.9995 28.8074 53.0609 28.8519 53.0609 28.9408V28.944ZM53.2711 28.9313C53.2711 28.8455 53.2452 28.7756 53.1935 28.7248C53.1288 28.6612 53.0318 28.6231 52.9025 28.6231H52.5889C52.534 28.6231 52.4855 28.6676 52.4855 28.7248V29.4618C52.4855 29.5158 52.5308 29.5635 52.5889 29.5635C52.6471 29.5635 52.6924 29.519 52.6924 29.4618V29.2521H52.8605L53.0771 29.519C53.103 29.5539 53.1224 29.5635 53.1644 29.5635C53.2129 29.5635 53.2582 29.519 53.2582 29.465C53.2582 29.4364 53.2485 29.4173 53.2323 29.3951L53.0771 29.214C53.1935 29.1664 53.2678 29.0742 53.2678 28.9345" fill="white"/>
<path d="M8.43777 22.2249V0.228234H11.1631V20.7413C12.0004 20.4554 12.8409 20.1885 13.6815 19.9312V20.8652C11.9228 21.2655 10.1738 21.7198 8.43453 22.2281" fill="white"/>
<path d="M2.04963 14.826L3.09708 3.475L4.05077 14.3907C3.38157 14.5305 2.7156 14.6766 2.04963 14.826ZM2.47314 0.225057L0 25.1476C0.394409 24.9888 0.792051 24.8331 1.18969 24.6774L1.94942 15.941C2.68004 15.7631 3.41067 15.5916 4.14129 15.4264L4.83636 23.3559C5.72863 23.0541 6.62737 22.765 7.5261 22.4918C6.78578 15.3216 5.25986 0.225057 5.25986 0.225057H2.47314Z" fill="white"/>
<path d="M53.575 20.7413C55.5793 21.1861 57.5676 21.6975 59.5428 22.2789V21.1956C59.5428 21.1956 57.3025 20.8239 56.1774 20.6365L59.3295 0.228234H53.7269V1.15588L56.5589 0.968446L53.5782 20.7413H53.575Z" fill="white"/>
<path d="M65.1939 19.1497C65.2036 22.1328 64.9643 23.3686 64.0624 23.0572C63.1572 22.7491 62.8985 21.3926 62.8791 18.5175V4.93954C62.8791 2.06447 63.0117 0.844548 63.946 0.844548C64.8803 0.844548 65.1842 2.13753 65.1971 5.12062V19.1497H65.1939ZM63.9395 0.012207C61.1399 0.012207 60.0827 2.06764 60.0827 9.06947V13.6791C60.0827 20.6873 61.3338 23.0382 64.0688 24.0039C66.5646 24.8839 67.9935 23.2288 68 15.3088V10.1528C68.0032 2.24237 66.7456 0.012207 63.9395 0.012207Z" fill="white"/>
<path d="M40.5045 14.88C40.5045 17.2054 40.3461 18.2189 39.4053 18.1617C38.4646 18.1077 38.1898 17.0688 38.1898 14.7656V4.17391C38.1898 1.8675 38.3838 0.841371 39.3084 0.844548C40.233 0.844548 40.4883 1.88021 40.5013 4.20568V14.88H40.5045ZM39.3084 0.012207C36.5152 0.012207 35.4063 1.69277 35.3998 7.5128V11.3378C35.3998 17.161 36.5701 18.8256 39.4118 18.994C42.2503 19.1846 43.3042 17.6407 43.3042 11.6332L43.2977 7.70977C43.2977 1.73725 42.0886 0.0153839 39.3051 0.0153839" fill="white"/>
<path d="M22.0222 15.976C22.0222 17.8186 21.3724 18.5715 19.7043 18.8225C19.6849 18.8225 19.6655 18.8288 19.6429 18.8288V9.25055L19.7657 9.24102C21.3854 9.12665 22.0222 9.74297 22.0222 11.3378V15.976ZM19.8692 1.10823C21.214 1.0987 21.7992 1.5244 21.7992 2.49334V5.85765C21.7992 7.23959 21.0556 7.93533 19.6396 7.96392V1.10823H19.8692ZM24.7249 11.6618C24.7249 9.58095 23.6419 8.44363 21.2852 8.41186C23.532 8.13547 24.4178 6.76941 24.4178 5.72105V3.66561C24.4178 1.03834 22.533 0.225057 19.9177 0.225057H16.9725V20.1758C17.9747 19.9852 18.9834 19.8105 19.9888 19.658C22.8434 19.2164 24.7282 18.3078 24.7282 14.5083V11.6618H24.7249Z" fill="white"/>
<path d="M52.3626 0.225057V20.4808C52.0717 20.4204 51.7775 20.3601 51.4833 20.3029L46.1685 7.58905V19.4197C45.7676 19.3657 45.3667 19.3149 44.9659 19.2641V0.225057H45.842L51.076 12.5672V0.225057H52.3626Z" fill="white"/>
<path d="M29.1022 8.74861C29.0828 8.74861 28.9923 8.74861 28.9923 8.74861V1.10823C28.9923 1.10823 29.1184 1.10823 29.1378 1.10823C30.4826 1.10505 31.1518 1.51804 31.1486 2.44887V7.36667C31.1486 8.29749 30.4536 8.71684 29.099 8.75178M29.6841 9.56188C30.5053 12.5831 31.3361 15.5948 32.1702 18.6064C33.0722 18.5906 33.9741 18.5842 34.8761 18.5937C34.042 15.7028 33.2144 12.8245 32.3933 9.94946C31.8146 9.77791 31.2359 9.60636 30.6572 9.44116C32.626 9.09171 33.7769 8.13229 33.7769 6.17216V3.5703C33.7769 0.946207 31.7693 0.215527 29.1475 0.215527C28.2487 0.215527 27.2078 0.225057 26.309 0.228234V18.9082C27.2045 18.832 28.1 18.7716 28.9955 18.724V9.59683C29.293 9.5873 29.4999 9.57777 29.6841 9.56506" fill="white"/>
</svg>
