<svg width="44px" height="44px" viewBox="0 0 44 44" version="1.1" xmlns="http://www.w3.org/2000/svg" xmlns:xlink="http://www.w3.org/1999/xlink">
    <defs>
        <style>
            g {
            display: none;
            }
            g:target {
            display: inline;
            }
            g#Group {
            display: inline;
            }
        </style>
    </defs>
    <title>Icons</title>
    <g id="Instagram">
        <path fill-rule="evenodd" clip-rule="evenodd" d="M22.0064 12.9812C24.9472 12.9812 25.2955 12.9941 26.452 13.0457C27.5269 13.093 28.1073 13.2735 28.4942 13.4239C29.0058 13.6216 29.3756 13.8623 29.7582 14.2448C30.1452 14.6316 30.3817 14.9969 30.5794 15.5083C30.7299 15.8951 30.9105 16.4796 30.9578 17.5497C31.0094 18.7101 31.0223 19.0582 31.0223 21.9936C31.0223 24.9332 31.0094 25.2813 30.9578 26.4374C30.9105 27.5118 30.7299 28.092 30.5794 28.4788C30.3817 28.9902 30.1409 29.3598 29.7582 29.7423C29.3713 30.1291 29.0058 30.3655 28.4942 30.5632C28.1073 30.7136 27.5226 30.8941 26.452 30.9414C25.2912 30.993 24.9429 31.0059 22.0064 31.0059C19.0657 31.0059 18.7174 30.993 17.5609 30.9414C16.486 30.8941 15.9056 30.7136 15.5187 30.5632C15.007 30.3655 14.6373 30.1248 14.2546 29.7423C13.8677 29.3555 13.6312 28.9902 13.4335 28.4788C13.283 28.092 13.1024 27.5075 13.0551 26.4374C13.0035 25.277 12.9906 24.9289 12.9906 21.9936C12.9906 19.0539 13.0035 18.7058 13.0551 17.5497C13.1024 16.4753 13.283 15.8951 13.4335 15.5083C13.6312 14.9969 13.872 14.6273 14.2546 14.2448C14.6416 13.858 15.007 13.6216 15.5187 13.4239C15.9056 13.2735 16.4903 13.093 17.5609 13.0457C18.7174 12.9941 19.0657 12.9812 22.0064 12.9812ZM22.0064 11C19.0184 11 18.6443 11.0129 17.4706 11.0645C16.3011 11.116 15.4972 11.3051 14.8007 11.5759C14.0741 11.8595 13.4593 12.2334 12.8487 12.848C12.2339 13.4583 11.8599 14.0729 11.5761 14.7949C11.3053 15.4954 11.1161 16.2948 11.0645 17.4638C11.0129 18.6413 11 19.0152 11 22.0022C11 24.9891 11.0129 25.363 11.0645 26.5362C11.1161 27.7052 11.3053 28.5089 11.5761 29.2051C11.8599 29.9314 12.2339 30.546 12.8487 31.1563C13.4593 31.7666 14.0741 32.1448 14.7964 32.4241C15.4972 32.6949 16.2968 32.884 17.4663 32.9355C18.64 32.9871 19.0141 33 22.0021 33C24.9902 33 25.3643 32.9871 26.538 32.9355C27.7074 32.884 28.5114 32.6949 29.2079 32.4241C29.9302 32.1448 30.545 31.7666 31.1555 31.1563C31.7661 30.546 32.1444 29.9314 32.4239 29.2094C32.6947 28.5089 32.8839 27.7095 32.9355 26.5405C32.9871 25.3673 33 24.9934 33 22.0065C33 19.0195 32.9871 18.6456 32.9355 17.4724C32.8839 16.3034 32.6947 15.4997 32.4239 14.8035C32.153 14.0729 31.779 13.4583 31.1641 12.848C30.5536 12.2377 29.9388 11.8595 29.2165 11.5802C28.5157 11.3094 27.716 11.1203 26.5466 11.0688C25.3686 11.0129 24.9945 11 22.0064 11ZM22.0066 16.3507C18.8853 16.3507 16.3529 18.882 16.3529 22.0022C16.3529 25.1223 18.8853 27.6537 22.0066 27.6537C25.128 27.6537 27.6603 25.1223 27.6603 22.0022C27.6603 18.882 25.128 16.3507 22.0066 16.3507ZM22.0066 25.6681C19.9816 25.6681 18.3393 24.0264 18.3393 22.0022C18.3393 19.9779 19.9816 18.3362 22.0066 18.3362C24.0316 18.3362 25.674 19.9779 25.674 22.0022C25.674 24.0264 24.0316 25.6681 22.0066 25.6681ZM27.8838 17.4465C28.6104 17.4465 29.2037 16.8577 29.2037 16.1271C29.2037 15.4008 28.6104 14.8077 27.8838 14.8077C27.1572 14.8077 26.5639 15.3965 26.5639 16.1271C26.5639 16.8534 27.1529 17.4465 27.8838 17.4465Z" fill="#E5E8EB"/>
    </g>
    <g id="InstagramBlue">
        <path fill-rule="evenodd" clip-rule="evenodd" d="M22.0064 12.9812C24.9472 12.9812 25.2955 12.9941 26.452 13.0457C27.5269 13.093 28.1073 13.2735 28.4942 13.4239C29.0058 13.6216 29.3756 13.8623 29.7582 14.2448C30.1452 14.6316 30.3817 14.9969 30.5794 15.5083C30.7299 15.8951 30.9105 16.4796 30.9578 17.5497C31.0094 18.7101 31.0223 19.0582 31.0223 21.9936C31.0223 24.9332 31.0094 25.2813 30.9578 26.4374C30.9105 27.5118 30.7299 28.092 30.5794 28.4788C30.3817 28.9902 30.1409 29.3598 29.7582 29.7423C29.3713 30.1291 29.0058 30.3655 28.4942 30.5632C28.1073 30.7136 27.5226 30.8941 26.452 30.9414C25.2912 30.993 24.9429 31.0059 22.0064 31.0059C19.0657 31.0059 18.7174 30.993 17.5609 30.9414C16.486 30.8941 15.9056 30.7136 15.5187 30.5632C15.007 30.3655 14.6373 30.1248 14.2546 29.7423C13.8677 29.3555 13.6312 28.9902 13.4335 28.4788C13.283 28.092 13.1024 27.5075 13.0551 26.4374C13.0035 25.277 12.9906 24.9289 12.9906 21.9936C12.9906 19.0539 13.0035 18.7058 13.0551 17.5497C13.1024 16.4753 13.283 15.8951 13.4335 15.5083C13.6312 14.9969 13.872 14.6273 14.2546 14.2448C14.6416 13.858 15.007 13.6216 15.5187 13.4239C15.9056 13.2735 16.4903 13.093 17.5609 13.0457C18.7174 12.9941 19.0657 12.9812 22.0064 12.9812ZM22.0064 11C19.0184 11 18.6443 11.0129 17.4706 11.0645C16.3011 11.116 15.4972 11.3051 14.8007 11.5759C14.0741 11.8595 13.4593 12.2334 12.8487 12.848C12.2339 13.4583 11.8599 14.0729 11.5761 14.7949C11.3053 15.4954 11.1161 16.2948 11.0645 17.4638C11.0129 18.6413 11 19.0152 11 22.0022C11 24.9891 11.0129 25.363 11.0645 26.5362C11.1161 27.7052 11.3053 28.5089 11.5761 29.2051C11.8599 29.9314 12.2339 30.546 12.8487 31.1563C13.4593 31.7666 14.0741 32.1448 14.7964 32.4241C15.4972 32.6949 16.2968 32.884 17.4663 32.9355C18.64 32.9871 19.0141 33 22.0021 33C24.9902 33 25.3643 32.9871 26.538 32.9355C27.7074 32.884 28.5114 32.6949 29.2079 32.4241C29.9302 32.1448 30.545 31.7666 31.1555 31.1563C31.7661 30.546 32.1444 29.9314 32.4239 29.2094C32.6947 28.5089 32.8839 27.7095 32.9355 26.5405C32.9871 25.3673 33 24.9934 33 22.0065C33 19.0195 32.9871 18.6456 32.9355 17.4724C32.8839 16.3034 32.6947 15.4997 32.4239 14.8035C32.153 14.0729 31.779 13.4583 31.1641 12.848C30.5536 12.2377 29.9388 11.8595 29.2165 11.5802C28.5157 11.3094 27.716 11.1203 26.5466 11.0688C25.3686 11.0129 24.9945 11 22.0064 11ZM22.0066 16.3507C18.8853 16.3507 16.3529 18.882 16.3529 22.0022C16.3529 25.1223 18.8853 27.6537 22.0066 27.6537C25.128 27.6537 27.6603 25.1223 27.6603 22.0022C27.6603 18.882 25.128 16.3507 22.0066 16.3507ZM22.0066 25.6681C19.9816 25.6681 18.3393 24.0264 18.3393 22.0022C18.3393 19.9779 19.9816 18.3362 22.0066 18.3362C24.0316 18.3362 25.674 19.9779 25.674 22.0022C25.674 24.0264 24.0316 25.6681 22.0066 25.6681ZM27.8838 17.4465C28.6104 17.4465 29.2037 16.8577 29.2037 16.1271C29.2037 15.4008 28.6104 14.8077 27.8838 14.8077C27.1572 14.8077 26.5639 15.3965 26.5639 16.1271C26.5639 16.8534 27.1529 17.4465 27.8838 17.4465Z" fill="#1C3775"/>
    </g>
    <g id="Twitter">
        <circle cx="21.5" cy="22" r="11" fill="#E5E8EB"/>
        <path d="M22.6543 21.0811L27.0039 16H25.973L22.1961 20.4124L19.1796 16H15.7L20.2618 22.6717L15.7 28.0005H16.731L20.7195 23.341L23.9051 28.0005H27.3847L22.6543 21.0811ZM21.2426 22.7306L20.7806 22.0663L17.1024 16.78H18.686L21.6539 21.0462L22.1159 21.7106L25.9741 27.2559H24.3906L21.2426 22.7306Z" fill="#1C3775"/>
    </g>
    <g id="TwitterBlue">
        <circle cx="21.5" cy="22" r="11" fill="#1C3775"/>
        <path d="M22.6543 21.0811L27.0039 16H25.973L22.1961 20.4124L19.1796 16H15.7L20.2618 22.6717L15.7 28.0005H16.731L20.7195 23.341L23.9051 28.0005H27.3847L22.6543 21.0811ZM21.2426 22.7306L20.7806 22.0663L17.1024 16.78H18.686L21.6539 21.0462L22.1159 21.7106L25.9741 27.2559H24.3906L21.2426 22.7306Z" fill="#E5E8EB"/>
    </g>
    <g id="Pinterest">
        <path d="M22 11C15.9242 11 11 15.9242 11 22C11 26.6621 13.9004 30.641 17.991 32.2437C17.8965 31.3715 17.8063 30.0395 18.0297 29.0898C18.2316 28.2305 19.3188 23.6242 19.3188 23.6242C19.3188 23.6242 18.9879 22.9668 18.9879 21.9914C18.9879 20.4617 19.873 19.3188 20.9773 19.3188C21.9141 19.3188 22.3695 20.0234 22.3695 20.8699C22.3695 21.8152 21.768 23.2246 21.4586 24.5309C21.2008 25.6266 22.0086 26.5203 23.0871 26.5203C25.0422 26.5203 26.5461 24.4578 26.5461 21.4844C26.5461 18.8504 24.6555 17.007 21.9527 17.007C18.8246 17.007 16.9855 19.3531 16.9855 21.7809C16.9855 22.7262 17.3508 23.7402 17.8062 24.2902C17.8965 24.3977 17.9094 24.4965 17.8836 24.6039C17.802 24.952 17.6129 25.6996 17.5785 25.85C17.5313 26.052 17.4195 26.0949 17.209 25.9961C15.834 25.3559 14.9746 23.3492 14.9746 21.7336C14.9746 18.2617 17.4969 15.0777 22.2406 15.0777C26.0563 15.0777 29.0211 17.7977 29.0211 21.4328C29.0211 25.2227 26.632 28.2734 23.3148 28.2734C22.202 28.2734 21.1535 27.6934 20.7926 27.0102C20.7926 27.0102 20.2426 29.1113 20.1094 29.627C19.8602 30.5809 19.1898 31.7797 18.743 32.5102C19.7742 32.8281 20.8656 33 22 33C28.0758 33 33 28.0758 33 22C33 15.9242 28.0758 11 22 11Z" fill="#E5E8EB"/>
    </g>
    <g id="PinterestBlue">
        <path d="M22 11C15.9242 11 11 15.9242 11 22C11 26.6621 13.9004 30.641 17.991 32.2437C17.8965 31.3715 17.8063 30.0395 18.0297 29.0898C18.2316 28.2305 19.3188 23.6242 19.3188 23.6242C19.3188 23.6242 18.9879 22.9668 18.9879 21.9914C18.9879 20.4617 19.873 19.3188 20.9773 19.3188C21.9141 19.3188 22.3695 20.0234 22.3695 20.8699C22.3695 21.8152 21.768 23.2246 21.4586 24.5309C21.2008 25.6266 22.0086 26.5203 23.0871 26.5203C25.0422 26.5203 26.5461 24.4578 26.5461 21.4844C26.5461 18.8504 24.6555 17.007 21.9527 17.007C18.8246 17.007 16.9855 19.3531 16.9855 21.7809C16.9855 22.7262 17.3508 23.7402 17.8062 24.2902C17.8965 24.3977 17.9094 24.4965 17.8836 24.6039C17.802 24.952 17.6129 25.6996 17.5785 25.85C17.5313 26.052 17.4195 26.0949 17.209 25.9961C15.834 25.3559 14.9746 23.3492 14.9746 21.7336C14.9746 18.2617 17.4969 15.0777 22.2406 15.0777C26.0563 15.0777 29.0211 17.7977 29.0211 21.4328C29.0211 25.2227 26.632 28.2734 23.3148 28.2734C22.202 28.2734 21.1535 27.6934 20.7926 27.0102C20.7926 27.0102 20.2426 29.1113 20.1094 29.627C19.8602 30.5809 19.1898 31.7797 18.743 32.5102C19.7742 32.8281 20.8656 33 22 33C28.0758 33 33 28.0758 33 22C33 15.9242 28.0758 11 22 11Z" fill="#1C3775"/>
    </g>
    <g id="Facebook">
        <path d="M33 22.0672C33 15.955 28.0751 11 22 11C15.9249 11 11 15.955 11 22.0672C11 27.5911 15.0225 32.1697 20.2813 33V25.2663H17.4883V22.0672H20.2813V19.629C20.2813 16.8553 21.9235 15.3231 24.4361 15.3231C25.6392 15.3231 26.8984 15.5393 26.8984 15.5393V18.2629H25.5114C24.145 18.2629 23.7188 19.116 23.7188 19.9921V22.0672H26.7695L26.2818 25.2663H23.7188V33C28.9775 32.1697 33 27.5911 33 22.0672Z" fill="#E5E8EB"/>
    </g>
    <g id="FacebookBlue">
        <path d="M33 22.0672C33 15.955 28.0751 11 22 11C15.9249 11 11 15.955 11 22.0672C11 27.5911 15.0225 32.1697 20.2813 33V25.2663H17.4883V22.0672H20.2813V19.629C20.2813 16.8553 21.9235 15.3231 24.4361 15.3231C25.6392 15.3231 26.8984 15.5393 26.8984 15.5393V18.2629H25.5114C24.145 18.2629 23.7188 19.116 23.7188 19.9921V22.0672H26.7695L26.2818 25.2663H23.7188V33C28.9775 32.1697 33 27.5911 33 22.0672Z" fill="#1C3775"/>
    </g>
    <g id="Youtube">
        <path d="M32.7809 17.3387C32.7809 17.3387 32.566 15.8219 31.9043 15.1559C31.0664 14.2793 30.1297 14.275 29.7 14.2234C26.6234 14 22.0043 14 22.0043 14H21.9957C21.9957 14 17.3766 14 14.3 14.2234C13.8703 14.275 12.9336 14.2793 12.0957 15.1559C11.434 15.8219 11.2234 17.3387 11.2234 17.3387C11.2234 17.3387 11 19.1219 11 20.9008V22.568C11 24.3469 11.2191 26.1301 11.2191 26.1301C11.2191 26.1301 11.434 27.6469 12.0914 28.3129C12.9293 29.1895 14.0293 29.1594 14.5191 29.2539C16.2809 29.4215 22 29.473 22 29.473C22 29.473 26.6234 29.4645 29.7 29.2453C30.1297 29.1938 31.0664 29.1895 31.9043 28.3129C32.566 27.6469 32.7809 26.1301 32.7809 26.1301C32.7809 26.1301 33 24.3512 33 22.568V20.9008C33 19.1219 32.7809 17.3387 32.7809 17.3387ZM19.727 24.5918V18.4086L25.6695 21.5109L19.727 24.5918Z" fill="#E5E8EB"/>
    </g>
    <g id="YoutubeBlue">
        <path d="M32.7809 17.3387C32.7809 17.3387 32.566 15.8219 31.9043 15.1559C31.0664 14.2793 30.1297 14.275 29.7 14.2234C26.6234 14 22.0043 14 22.0043 14H21.9957C21.9957 14 17.3766 14 14.3 14.2234C13.8703 14.275 12.9336 14.2793 12.0957 15.1559C11.434 15.8219 11.2234 17.3387 11.2234 17.3387C11.2234 17.3387 11 19.1219 11 20.9008V22.568C11 24.3469 11.2191 26.1301 11.2191 26.1301C11.2191 26.1301 11.434 27.6469 12.0914 28.3129C12.9293 29.1895 14.0293 29.1594 14.5191 29.2539C16.2809 29.4215 22 29.473 22 29.473C22 29.473 26.6234 29.4645 29.7 29.2453C30.1297 29.1938 31.0664 29.1895 31.9043 28.3129C32.566 27.6469 32.7809 26.1301 32.7809 26.1301C32.7809 26.1301 33 24.3512 33 22.568V20.9008C33 19.1219 32.7809 17.3387 32.7809 17.3387ZM19.727 24.5918V18.4086L25.6695 21.5109L19.727 24.5918Z" fill="#1C3775"/>
    </g>
    <g id="Tumblr">
        <path d="M24 32C21 32 18.75 30.4583 18.75 26.75V20.8333H16V17.625C19 16.8333 20.25 14.25 20.4167 12H23.5417V17.0833H27.1667V20.8333H23.5417V26C23.5417 27.5417 24.3333 28.0833 25.5833 28.0833H27.3333V32H24Z" fill="#E5E8EB"/>
    </g>
    <g id="TumblrBlue">
        <path d="M24 32C21 32 18.75 30.4583 18.75 26.75V20.8333H16V17.625C19 16.8333 20.25 14.25 20.4167 12H23.5417V17.0833H27.1667V20.8333H23.5417V26C23.5417 27.5417 24.3333 28.0833 25.5833 28.0833H27.3333V32H24Z" fill="#1C3775"/>
    </g>
    <g id="CopyUrl" fill="none">
        <path d="M17.4513 20.1868L15.2178 22.4203C14.3837 23.2544 13.904 24.3894 13.9128 25.5822C13.9215 26.775 14.3907 27.9169 15.2644 28.7636C16.1111 29.6374 17.2532 30.1065 18.4459 30.1153C19.6657 30.1243 20.7738 29.6716 21.608 28.8375L23.8414 26.604M26.6942 23.8058L28.9277 21.5723C29.7618 20.7382 30.2415 19.6032 30.2327 18.4104C30.224 17.2176 29.7548 16.0757 28.8811 15.229C28.0346 14.3825 26.8927 13.9133 25.6998 13.9045C24.507 13.8957 23.3719 14.3482 22.5377 15.1823L20.3043 17.4158M18.6859 25.3235L25.3862 18.6231" stroke="#1C3775" stroke-width="2" stroke-linecap="round" stroke-linejoin="round"/>
    </g>
    <g id="CopyList" fill="none">
        <path d="M18.6443 11.0013C17.7089 11.0013 16.9331 11.7771 16.9331 12.7123V14.9122H15.711C14.7758 14.9122 14 15.688 14 16.6232V31.289C14 32.2242 14.7758 33 15.711 33H25.4882C26.4236 33 27.1993 32.2242 27.1993 31.289V29.0891H28.4215C29.3567 29.0891 30.1324 28.3133 30.1324 27.3781V16.1343C30.133 15.9396 30.0559 15.7527 29.9185 15.6148L25.5187 11.215C25.3808 11.0778 25.1939 11.0007 24.9992 11.0012H21.0884C21.0884 11.1975 21.0884 12.4679 21.0884 12.4679H24.2659V16.1343C24.2661 16.3287 24.3433 16.5152 24.4807 16.6528C24.6183 16.7903 24.8048 16.8675 24.9992 16.8675H28.6657V27.378C28.6657 27.5262 28.5693 27.6225 28.4213 27.6225H18.6441C18.496 27.6225 18.3996 27.5262 18.3996 27.378V12.7122C18.3996 12.5642 18.496 12.4679 18.6441 12.4679C18.8404 12.4706 21.0884 12.4679 21.0884 12.4679V11.0012C20.9264 11.0012 18.8404 10.9985 18.6441 11.0012L18.6443 11.0013ZM25.7327 13.5066L27.627 15.401H25.7327V13.5066ZM15.7111 16.3787H16.9333V27.3781C16.9333 28.3133 17.709 29.0891 18.6444 29.0891H25.7329V31.289C25.7329 31.437 25.6365 31.5334 25.4884 31.5334H15.7112C15.5632 31.5334 15.4668 31.437 15.4668 31.289V16.6232C15.4668 16.475 15.5632 16.3787 15.7112 16.3787L15.7111 16.3787Z" fill="#1C3775"/>
    </g>
    <g id="WhatsappBlue" fill="none">
        <path fill-rule="evenodd" clip-rule="evenodd" d="M29.7711 14.0134C30.7846 14.9641 31.5828 16.0672 32.1388 17.2959C32.7128 18.5784 33.0088 19.9326 32.9998 21.3407C32.9998 22.7398 32.7038 24.103 32.1298 25.3765C31.5738 26.6052 30.7756 27.7084 29.7622 28.659C28.7487 29.6097 27.5738 30.3451 26.2644 30.8653C24.9102 31.4034 23.4752 31.6724 21.9954 31.6724C20.408 31.6724 18.8923 31.3675 17.4663 30.7576L12.695 32.8832L13.5919 27.9953C11.9148 26.1299 11 23.7801 11 21.3317C11 19.9326 11.296 18.5694 11.87 17.2959C12.426 16.0672 13.2242 14.9641 14.2376 14.0134C15.2511 13.0628 16.426 12.3273 17.7354 11.8072C19.0896 11.2691 20.5246 11 22.0044 11C23.4842 11 24.9192 11.2691 26.2734 11.8072C27.5828 12.3273 28.7577 13.0717 29.7711 14.0134ZM25.4214 22.9281C25.6636 23.0178 26.0043 23.1613 26.4707 23.3944C26.5965 23.459 26.7288 23.5133 26.8621 23.5681C27.0804 23.6577 27.3016 23.7485 27.5021 23.8877C27.6635 24.103 27.7084 24.2823 27.6007 24.7577C25.4842 30.2285 15.0807 22.2913 16.8116 18.121C17.0986 17.4663 17.7981 16.2107 19.0179 16.8385C19.2085 16.9338 19.2884 17.136 19.3679 17.3373C19.408 17.439 19.448 17.5404 19.5022 17.6277C19.6202 17.875 19.7488 18.1575 19.8593 18.4002C19.9251 18.5448 19.9845 18.6752 20.0313 18.7757C20.0461 18.8291 20.0755 18.8881 20.1083 18.9537C20.235 19.2076 20.4104 19.5593 19.9685 20.0582C19.9303 20.1313 19.8448 20.2237 19.7514 20.3245C19.5816 20.5077 19.3862 20.7186 19.4035 20.8922C19.547 21.1523 20.2107 22.1209 20.5694 22.4617C21.3766 23.242 22.408 24.0043 23.5201 24.2195C23.7825 24.1198 24.0357 23.7651 24.2798 23.4233C24.4527 23.1811 24.621 22.9454 24.7846 22.8115C24.892 22.7272 25.1697 22.8329 25.3433 22.899C25.3728 22.9102 25.3993 22.9203 25.4214 22.9281Z" fill="#1C3775"/>
    </g>
    <g id="TelegramBlue" fill="none">
        <path fill-rule="evenodd" clip-rule="evenodd" d="M33 22C33 28.0751 28.0751 33 22 33C15.9249 33 11 28.0751 11 22C11 15.9249 15.9249 11 22 11C28.0751 11 33 15.9249 33 22ZM22.3942 19.1207C21.3243 19.5657 19.186 20.4868 15.9792 21.8839C15.4585 22.091 15.1857 22.2935 15.1609 22.4916C15.1189 22.8264 15.5382 22.9582 16.109 23.1377C16.1867 23.1621 16.2671 23.1874 16.3496 23.2142C16.9113 23.3968 17.6668 23.6104 18.0595 23.6189C18.4158 23.6266 18.8134 23.4797 19.2524 23.1782C22.2486 21.1558 23.7952 20.1335 23.8923 20.1115C23.9608 20.0959 24.0557 20.0764 24.12 20.1335C24.1844 20.1907 24.178 20.299 24.1712 20.328C24.1297 20.505 22.4841 22.0349 21.6325 22.8266C21.367 23.0734 21.1787 23.2485 21.1402 23.2885C21.054 23.3781 20.9661 23.4628 20.8817 23.5442C20.3599 24.0472 19.9686 24.4244 20.9033 25.0404C21.3525 25.3364 21.7119 25.5812 22.0705 25.8254C22.4622 26.0921 22.8528 26.3581 23.3581 26.6894C23.4869 26.7738 23.6099 26.8614 23.7296 26.9468C24.1854 27.2717 24.5949 27.5636 25.1007 27.5171C25.3946 27.49 25.6983 27.2136 25.8525 26.3893C26.2169 24.4412 26.9332 20.2203 27.0987 18.4809C27.1132 18.3285 27.095 18.1335 27.0803 18.0479C27.0657 17.9622 27.035 17.8403 26.9238 17.75C26.792 17.643 26.5885 17.6205 26.4975 17.6221C26.0838 17.6294 25.449 17.8501 22.3942 19.1207Z" fill="#1C3775"/>
    </g>
    <g id="NavButton">
        <path d="M14 16H30M14 22H30M14 28H30" stroke="white" stroke-width="2" stroke-linecap="round" stroke-linejoin="round"/>
    </g>
    <g id="SelectArrow">
        <path fill="none" d="M25 21L22 24L19 21" stroke="white" stroke-width="1.5" stroke-linecap="round" stroke-linejoin="round"/>
    </g>
    <g id="SelectArrowBlue">
        <path fill="none" d="M25 21L22 24L19 21" stroke="#1C3775" stroke-width="1.5" stroke-linecap="round" stroke-linejoin="round"/>
    </g>
    <g id="HelpWheel">
        <path fill="none" d="M24.5456 24.122C23.1397 25.5279 20.8603 25.5279 19.4544 24.122M24.5456 24.122C25.9515 22.7161 25.9515 20.4368 24.5456 19.0309M24.5456 24.122L28.364 27.9404M19.4544 24.122C18.0485 22.7161 18.0485 20.4368 19.4544 19.0309M19.4544 24.122L15.636 27.9404M19.4544 19.0309C20.8603 17.625 23.1397 17.625 24.5456 19.0309M19.4544 19.0309L15.636 15.2125M24.5456 19.0309L28.364 15.2125M28.7882 28.3647C25.0392 32.1137 18.9608 32.1137 15.2118 28.3647C11.4627 24.6156 11.4627 18.5373 15.2118 14.7882C18.9608 11.0392 25.0392 11.0392 28.7882 14.7882C32.5373 18.5373 32.5373 24.6156 28.7882 28.3647Z" stroke="#646D83" stroke-width="2" stroke-linecap="round" stroke-linejoin="round"/>
    </g>
    <g id="World">
        <path fill="none" d="M31 22C31 26.9706 26.9706 31 22 31M31 22C31 17.0294 26.9706 13 22 13M31 22H13M22 31C17.0294 31 13 26.9706 13 22M22 31C23.6569 31 25 26.9706 25 22C25 17.0294 23.6569 13 22 13M22 31C20.3431 31 19 26.9706 19 22C19 17.0294 20.3431 13 22 13M13 22C13 17.0294 17.0294 13 22 13" stroke="#646D83" stroke-width="2" stroke-linecap="round" stroke-linejoin="round"/>
    </g>
    <g id="WorldWhite">
        <path fill="none" d="M31 22C31 26.9706 26.9706 31 22 31M31 22C31 17.0294 26.9706 13 22 13M31 22H13M22 31C17.0294 31 13 26.9706 13 22M22 31C23.6569 31 25 26.9706 25 22C25 17.0294 23.6569 13 22 13M22 31C20.3431 31 19 26.9706 19 22C19 17.0294 20.3431 13 22 13M13 22C13 17.0294 17.0294 13 22 13" stroke="#ffffff" stroke-width="2" stroke-linecap="round" stroke-linejoin="round"/>
    </g>
    <g id="WorldYellow">
        <path fill="none" d="M31 22C31 26.9706 26.9706 31 22 31M31 22C31 17.0294 26.9706 13 22 13M31 22H13M22 31C17.0294 31 13 26.9706 13 22M22 31C23.6569 31 25 26.9706 25 22C25 17.0294 23.6569 13 22 13M22 31C20.3431 31 19 26.9706 19 22C19 17.0294 20.3431 13 22 13M13 22C13 17.0294 17.0294 13 22 13" stroke="#FDC533" stroke-width="2" stroke-linecap="round" stroke-linejoin="round"/>
    </g>
    <g id="SmallWhiteArrow">
        <path d="M21.1667 26.75L17 22.375M17 22.375L21.1667 18M17 22.375H27" stroke="white" stroke-width="2" stroke-linecap="round" stroke-linejoin="round"/>
    </g>
    <g id="SmallWhiteArrowRight">
        <path d="M22.8333 26.75L27 22.375M27 22.375L22.8333 18M27 22.375H17" stroke="white" stroke-width="2" stroke-linecap="round" stroke-linejoin="round"/>
    </g>
    <g id="SmallWhiteArrowRightThemeWheat">
        <path d="M22.8333 26.75L27 22.375M27 22.375L22.8333 18M27 22.375H17" stroke="#674D04" stroke-width="2" stroke-linecap="round" stroke-linejoin="round"/>
    </g>
    <g id="SmallWhiteArrowRightBlue">
        <path d="M22.8333 26.75L27 22.375M27 22.375L22.8333 18M27 22.375H17" stroke="#1C3775" stroke-width="2" stroke-linecap="round" stroke-linejoin="round"/>
    </g>
    <g id="SmallWhiteArrowRightThemeProtein">
        <path d="M22.8333 26.75L27 22.375M27 22.375L22.8333 18M27 22.375H17" stroke="#5B3427" stroke-width="2" stroke-linecap="round" stroke-linejoin="round"/>
    </g>
    <g id="SmallBlueArrow">
        <path d="M21.1667 26.75L17 22.375M17 22.375L21.1667 18M17 22.375H27" stroke="#1C3775" stroke-width="2" stroke-linecap="round" stroke-linejoin="round"/>
    </g>
    <g id="SmallBlueArrowRight">
        <path d="M22.8333 26.75L27 22.375M27 22.375L22.8333 18M27 22.375H17" stroke="#1C3775" stroke-width="2" stroke-linecap="round" stroke-linejoin="round"/>
    </g>
    <g id="Close">
        <path d="M28 16L16 28M28 28L16 16" stroke="#1C3775" stroke-width="2" stroke-linecap="round"/>
    </g>
    <g id="CloseWhite">
        <path d="M28 16L16 28M28 28L16 16" stroke="#ffffff" stroke-width="2" stroke-linecap="round"/>
    </g>
    <g id="CloseYellow">
        <path d="M28 16L16 28M28 28L16 16" stroke="#FDC533" stroke-width="2" stroke-linecap="round"/>
    </g>
    <g id="SmallBlueClose">
        <path d="M25 19L19 25M25 25L19 19" stroke="#1C3775" stroke-width="1.6" stroke-linecap="round"/>
    </g>
    <g id="SmallWhiteClose">
        <path d="M25 19L19 25M25 25L19 19" stroke="#FFFFFF" stroke-width="1.6" stroke-linecap="round"/>
    </g>
    <g id="SignIn" fill="none">
        <path d="M12 30.1125C12 26.3369 15.1543 23.2762 21.6 23.2762C28.0458 23.2762 31.2 26.3369 31.2 30.1125C31.2 30.7131 30.7618 31.2 30.2212 31.2H12.9789C12.4383 31.2 12 30.7131 12 30.1125Z" stroke="white" stroke-width="2"/>
        <path d="M25.2 15.6C25.2 17.5883 23.5883 19.2 21.6 19.2C19.6118 19.2 18 17.5883 18 15.6C18 13.6118 19.6118 12 21.6 12C23.5883 12 25.2 13.6118 25.2 15.6Z" stroke="white" stroke-width="2"/>
    </g>
    <g id="SignInYellow" fill="none">
        <path d="M12 30.1125C12 26.3369 15.1543 23.2762 21.6 23.2762C28.0458 23.2762 31.2 26.3369 31.2 30.1125C31.2 30.7131 30.7618 31.2 30.2212 31.2H12.9789C12.4383 31.2 12 30.7131 12 30.1125Z" stroke="#FDC533" stroke-width="2"/>
        <path d="M25.2 15.6C25.2 17.5883 23.5883 19.2 21.6 19.2C19.6118 19.2 18 17.5883 18 15.6C18 13.6118 19.6118 12 21.6 12C23.5883 12 25.2 13.6118 25.2 15.6Z" stroke="#FDC533" stroke-width="2"/>
    </g>
    <g id="Share">
        <path fill="none" d="M18.6839 23.3419C18.8862 22.9381 19 22.4824 19 22C19 21.5176 18.8862 21.0619 18.6839 20.6581M18.6839 23.3419C18.1913 24.3251 17.1745 25 16 25C14.3431 25 13 23.6569 13 22C13 20.3431 14.3431 19 16 19C17.1745 19 18.1913 19.6749 18.6839 20.6581M18.6839 23.3419L25.3161 26.6581M18.6839 20.6581L25.3161 17.3419M25.3161 17.3419C25.8087 18.3251 26.8255 19 28 19C29.6569 19 31 17.6569 31 16C31 14.3431 29.6569 13 28 13C26.3431 13 25 14.3431 25 16C25 16.4824 25.1138 16.9381 25.3161 17.3419ZM25.3161 26.6581C25.1138 27.0619 25 27.5176 25 28C25 29.6569 26.3431 31 28 31C29.6569 31 31 29.6569 31 28C31 26.3431 29.6569 25 28 25C26.8255 25 25.8087 25.6749 25.3161 26.6581Z" stroke="white" stroke-width="2" stroke-linecap="round" stroke-linejoin="round"/>
    </g>
    <g id="ShareBlue">
        <path fill="none" d="M18.6839 23.3419C18.8862 22.9381 19 22.4824 19 22C19 21.5176 18.8862 21.0619 18.6839 20.6581M18.6839 23.3419C18.1913 24.3251 17.1745 25 16 25C14.3431 25 13 23.6569 13 22C13 20.3431 14.3431 19 16 19C17.1745 19 18.1913 19.6749 18.6839 20.6581M18.6839 23.3419L25.3161 26.6581M18.6839 20.6581L25.3161 17.3419M25.3161 17.3419C25.8087 18.3251 26.8255 19 28 19C29.6569 19 31 17.6569 31 16C31 14.3431 29.6569 13 28 13C26.3431 13 25 14.3431 25 16C25 16.4824 25.1138 16.9381 25.3161 17.3419ZM25.3161 26.6581C25.1138 27.0619 25 27.5176 25 28C25 29.6569 26.3431 31 28 31C29.6569 31 31 29.6569 31 28C31 26.3431 29.6569 25 28 25C26.8255 25 25.8087 25.6749 25.3161 26.6581Z" stroke="#1C3775" stroke-width="2" stroke-linecap="round" stroke-linejoin="round"/>
    </g>
    <g id="FavouriteBlue" fill="none">
        <path fill-rule="evenodd" clip-rule="evenodd" d="M14.318 15.318C16.0754 13.5607 18.9246 13.5607 20.682 15.318L22 16.636L23.318 15.318C25.0754 13.5607 27.9246 13.5607 29.682 15.318C31.4393 17.0754 31.4393 19.9246 29.682 21.682L22 29.364L14.318 21.682C12.5607 19.9246 12.5607 17.0754 14.318 15.318Z" stroke="#1C3775" stroke-width="2" stroke-linecap="round"/>
    </g>
    <g id="FavouriteBlueFilled" fill="#1C3775">
        <path fill-rule="evenodd" clip-rule="evenodd" d="M14.318 15.318C16.0754 13.5607 18.9246 13.5607 20.682 15.318L22 16.636L23.318 15.318C25.0754 13.5607 27.9246 13.5607 29.682 15.318C31.4393 17.0754 31.4393 19.9246 29.682 21.682L22 29.364L14.318 21.682C12.5607 19.9246 12.5607 17.0754 14.318 15.318Z" stroke="#1C3775" stroke-width="2" stroke-linecap="round"/>
    </g>
    <g id="Original">
        <path d="M28.7485 19.7042C28.7745 18.8943 28.4673 18.1091 27.8985 17.5317C27.2892 16.9004 26.4501 16.5426 25.5726 16.5396H24.5038C24.2223 15.7396 23.6206 15.0927 22.8427 14.7541C22.065 14.4153 21.1814 14.4153 20.4036 14.7541C19.6258 15.0927 19.024 15.7396 18.7425 16.5396H17.5516C16.7363 16.5402 15.9551 16.8667 15.382 17.4463C14.8088 18.0259 14.4913 18.8106 14.5002 19.6255C14.5092 20.4404 14.8436 21.218 15.4292 21.785C15.9293 22.2494 16.33 22.8103 16.6073 23.4338C16.8846 24.0571 17.0327 24.7303 17.0427 25.4125V27.5188C17.0427 27.8454 17.1724 28.1585 17.4033 28.3894C17.6344 28.6203 17.9476 28.75 18.2743 28.75H24.9721C25.2988 28.75 25.612 28.6203 25.8431 28.3894C26.0741 28.1585 26.2038 27.8454 26.2038 27.5188V25.6669C26.2065 24.9378 26.3542 24.2164 26.6381 23.5448C26.9221 22.8732 27.3367 22.2646 27.8579 21.7545C28.4034 21.2082 28.7216 20.4757 28.7485 19.7042H28.7485ZM24.9721 27.7326H18.2743C18.2176 27.7326 18.1632 27.7101 18.1231 27.67C18.083 27.6299 18.0605 27.5755 18.0605 27.5188V26.715H25.1858V27.5188C25.1858 27.5755 25.1633 27.6299 25.1232 27.67C25.0831 27.7101 25.0287 27.7326 24.972 27.7326H24.9721ZM27.1249 21.0424H27.125C26.5121 21.6469 26.0251 22.3669 25.6923 23.1607C25.3595 23.9545 25.1873 24.8064 25.1859 25.6671V25.6976H18.0606V25.4127C18.0514 24.5937 17.8761 23.7851 17.5455 23.0357C17.2148 22.2863 16.7356 21.6116 16.1368 21.0526C15.7442 20.6742 15.5198 20.1541 15.5141 19.609C15.5083 19.0639 15.7217 18.5392 16.1062 18.1527C16.4895 17.7698 17.0097 17.5555 17.5516 17.5573H19.1293C19.2484 17.5597 19.3645 17.5203 19.4575 17.4459C19.5506 17.3715 19.6145 17.267 19.6383 17.1503C19.7638 16.5322 20.169 16.0072 20.7354 15.7289C21.3017 15.4507 21.965 15.4507 22.5314 15.7289C23.0977 16.0072 23.5029 16.5322 23.6284 17.1503C23.6523 17.267 23.7163 17.3715 23.8092 17.4459C23.9022 17.5203 24.0183 17.5597 24.1374 17.5573H25.593C26.1944 17.56 26.7691 17.8059 27.186 18.2391C27.5544 18.6218 27.751 19.138 27.7306 19.6687C27.7112 20.187 27.4945 20.6784 27.125 21.0424L27.1249 21.0424Z" fill="#646D83" stroke="#646D83" stroke-width="0.4"/>
    </g>
    <g id="OriginalSelected">
        <path d="M28.7485 19.7042C28.7745 18.8943 28.4673 18.1091 27.8985 17.5317C27.2892 16.9004 26.4501 16.5426 25.5726 16.5396H24.5038C24.2223 15.7396 23.6206 15.0927 22.8427 14.7541C22.065 14.4153 21.1814 14.4153 20.4036 14.7541C19.6258 15.0927 19.024 15.7396 18.7425 16.5396H17.5516C16.7363 16.5402 15.9551 16.8667 15.382 17.4463C14.8088 18.0259 14.4913 18.8106 14.5002 19.6255C14.5092 20.4404 14.8436 21.218 15.4292 21.785C15.9293 22.2494 16.33 22.8103 16.6073 23.4338C16.8846 24.0571 17.0327 24.7303 17.0427 25.4125V27.5188C17.0427 27.8454 17.1724 28.1585 17.4033 28.3894C17.6344 28.6203 17.9476 28.75 18.2743 28.75H24.9721C25.2988 28.75 25.612 28.6203 25.8431 28.3894C26.0741 28.1585 26.2038 27.8454 26.2038 27.5188V25.6669C26.2065 24.9378 26.3542 24.2164 26.6381 23.5448C26.9221 22.8732 27.3367 22.2646 27.8579 21.7545C28.4034 21.2082 28.7216 20.4757 28.7485 19.7042H28.7485ZM24.9721 27.7326H18.2743C18.2176 27.7326 18.1632 27.7101 18.1231 27.67C18.083 27.6299 18.0605 27.5755 18.0605 27.5188V26.715H25.1858V27.5188C25.1858 27.5755 25.1633 27.6299 25.1232 27.67C25.0831 27.7101 25.0287 27.7326 24.972 27.7326H24.9721ZM27.1249 21.0424H27.125C26.5121 21.6469 26.0251 22.3669 25.6923 23.1607C25.3595 23.9545 25.1873 24.8064 25.1859 25.6671V25.6976H18.0606V25.4127C18.0514 24.5937 17.8761 23.7851 17.5455 23.0357C17.2148 22.2863 16.7356 21.6116 16.1368 21.0526C15.7442 20.6742 15.5198 20.1541 15.5141 19.609C15.5083 19.0639 15.7217 18.5392 16.1062 18.1527C16.4895 17.7698 17.0097 17.5555 17.5516 17.5573H19.1293C19.2484 17.5597 19.3645 17.5203 19.4575 17.4459C19.5506 17.3715 19.6145 17.267 19.6383 17.1503C19.7638 16.5322 20.169 16.0072 20.7354 15.7289C21.3017 15.4507 21.965 15.4507 22.5314 15.7289C23.0977 16.0072 23.5029 16.5322 23.6284 17.1503C23.6523 17.267 23.7163 17.3715 23.8092 17.4459C23.9022 17.5203 24.0183 17.5597 24.1374 17.5573H25.593C26.1944 17.56 26.7691 17.8059 27.186 18.2391C27.5544 18.6218 27.751 19.138 27.7306 19.6687C27.7112 20.187 27.4945 20.6784 27.125 21.0424L27.1249 21.0424Z" fill="#1C3775" stroke="#1C3775" stroke-width="0.4"/>
    </g>
    <g id="Open">
        <path d="M17.5455 26.3242H18.3939M25.1818 22.9303H27.303C28.2402 22.9303 29 23.69 29 24.6272V27.1727C29 28.1099 28.2402 28.8697 27.303 28.8697H18.3939M21.3636 18.1053L23.9719 15.497C24.6346 14.8343 25.7091 14.8343 26.3718 15.497L28.1717 17.2969C28.8344 17.9596 28.8344 19.0341 28.1717 19.6968L20.9394 26.9291M16.697 28.8697H19.2424C20.1796 28.8697 20.9394 28.1099 20.9394 27.1727V16.9909C20.9394 16.0537 20.1796 15.2939 19.2424 15.2939H16.697C15.7598 15.2939 15 16.0537 15 16.9909V27.1727C15 28.1099 15.7598 28.8697 16.697 28.8697Z" fill="none" stroke="#646D83" stroke-width="1.2" stroke-linecap="round" stroke-linejoin="round"/>
    </g>
    <g id="OpenSelected">
        <path d="M17.5455 26.3242H18.3939M25.1818 22.9303H27.303C28.2402 22.9303 29 23.69 29 24.6272V27.1727C29 28.1099 28.2402 28.8697 27.303 28.8697H18.3939M21.3636 18.1053L23.9719 15.497C24.6346 14.8343 25.7091 14.8343 26.3718 15.497L28.1717 17.2969C28.8344 17.9596 28.8344 19.0341 28.1717 19.6968L20.9394 26.9291M16.697 28.8697H19.2424C20.1796 28.8697 20.9394 28.1099 20.9394 27.1727V16.9909C20.9394 16.0537 20.1796 15.2939 19.2424 15.2939H16.697C15.7598 15.2939 15 16.0537 15 16.9909V27.1727C15 28.1099 15.7598 28.8697 16.697 28.8697Z" fill="none" stroke="#1C3775" stroke-width="1.2" stroke-linecap="round" stroke-linejoin="round"/>
    </g>
    <g id="Kosher">
        <path fill-rule="evenodd" clip-rule="evenodd" d="M22.4371 14.3076C22.1958 13.8972 21.8041 13.8978 21.5629 14.3076L19.7012 17.4724C19.6207 17.6089 19.4248 17.7199 19.2645 17.7199H15.5402C15.0575 17.7199 14.8622 18.0529 15.1033 18.4627L16.9652 21.6275C17.0457 21.7643 17.0455 21.9861 16.9652 22.1225L15.1033 25.2873C14.862 25.6975 15.0581 26.0301 15.5402 26.0301H19.2645C19.4252 26.0301 19.6209 26.1413 19.7012 26.2776L21.5629 29.4424C21.8043 29.8528 22.196 29.8522 22.4371 29.4424L24.2991 26.2776C24.3795 26.1411 24.5755 26.0301 24.736 26.0301H28.4598C28.9423 26.0301 29.1379 25.6971 28.8967 25.2873L27.035 22.1225C26.9545 21.9857 26.9547 21.7639 27.035 21.6275L28.8967 18.4627C29.1381 18.0525 28.9419 17.7199 28.4598 17.7199H24.736C24.5751 17.7199 24.3793 17.6087 24.2991 17.4724L22.4371 14.3076ZM21.8546 15.5307C21.9348 15.3943 22.0652 15.3947 22.1452 15.5307L23.2879 17.4728C23.3682 17.6093 23.3026 17.7198 23.1425 17.7198H20.8575C20.697 17.7198 20.6321 17.6087 20.7121 17.4728L21.8546 15.5307ZM25.0954 18.8264C25.0152 18.6901 25.0808 18.5796 25.2407 18.5796H27.5258C27.6864 18.5796 27.7511 18.6905 27.6711 18.8264L26.5286 20.7679C26.4483 20.9044 26.318 20.904 26.2379 20.7679L25.0954 18.8264ZM18.2682 22.1226C18.1875 21.9859 18.1869 21.7652 18.2682 21.6273L19.9157 18.8272C19.9961 18.6903 20.1904 18.5795 20.3528 18.5795H23.6474C23.8084 18.5795 24.0035 18.6891 24.0846 18.8272L25.7318 21.6273C25.8123 21.764 25.8131 21.9847 25.7318 22.1226L24.0846 24.9226C24.0041 25.0596 23.81 25.1703 23.6474 25.1703H20.3528C20.1919 25.1703 19.9967 25.0608 19.9157 24.9226L18.2682 22.1226ZM16.3291 18.8264C16.2488 18.6901 16.3144 18.5796 16.4743 18.5796H18.7593C18.9196 18.5796 18.9845 18.6905 18.9045 18.8264L17.7618 20.7679C17.6816 20.9044 17.5514 20.904 17.4713 20.7679L16.3291 18.8264ZM26.238 22.9813C26.3183 22.845 26.4486 22.8454 26.5287 22.9813L27.6712 24.9234C27.7514 25.0597 27.686 25.1703 27.5259 25.1703H25.2408C25.0803 25.1703 25.0155 25.0593 25.0955 24.9234L26.238 22.9813ZM17.4716 22.9813C17.5518 22.845 17.6822 22.8454 17.762 22.9813L18.9047 24.9234C18.985 25.0597 18.9194 25.1703 18.7595 25.1703H16.4745C16.314 25.1703 16.2492 25.0593 16.3293 24.9234L17.4716 22.9813ZM20.7122 26.277C20.632 26.1405 20.6975 26.03 20.8576 26.03H23.1426C23.3031 26.03 23.3679 26.1409 23.288 26.277L22.1453 28.2185C22.0651 28.3549 21.9347 28.3545 21.8547 28.2185L20.7122 26.277Z" fill="#646D83" stroke="#646D83" stroke-width="0.4"/>
    </g>
    <g id="KosherSelected">
        <path fill-rule="evenodd" clip-rule="evenodd" d="M22.4371 14.3076C22.1958 13.8972 21.8041 13.8978 21.5629 14.3076L19.7012 17.4724C19.6207 17.6089 19.4248 17.7199 19.2645 17.7199H15.5402C15.0575 17.7199 14.8622 18.0529 15.1033 18.4627L16.9652 21.6275C17.0457 21.7643 17.0455 21.9861 16.9652 22.1225L15.1033 25.2873C14.862 25.6975 15.0581 26.0301 15.5402 26.0301H19.2645C19.4252 26.0301 19.6209 26.1413 19.7012 26.2776L21.5629 29.4424C21.8043 29.8528 22.196 29.8522 22.4371 29.4424L24.2991 26.2776C24.3795 26.1411 24.5755 26.0301 24.736 26.0301H28.4598C28.9423 26.0301 29.1379 25.6971 28.8967 25.2873L27.035 22.1225C26.9545 21.9857 26.9547 21.7639 27.035 21.6275L28.8967 18.4627C29.1381 18.0525 28.9419 17.7199 28.4598 17.7199H24.736C24.5751 17.7199 24.3793 17.6087 24.2991 17.4724L22.4371 14.3076ZM21.8546 15.5307C21.9348 15.3943 22.0652 15.3947 22.1452 15.5307L23.2879 17.4728C23.3682 17.6093 23.3026 17.7198 23.1425 17.7198H20.8575C20.697 17.7198 20.6321 17.6087 20.7121 17.4728L21.8546 15.5307ZM25.0954 18.8264C25.0152 18.6901 25.0808 18.5796 25.2407 18.5796H27.5258C27.6864 18.5796 27.7511 18.6905 27.6711 18.8264L26.5286 20.7679C26.4483 20.9044 26.318 20.904 26.2379 20.7679L25.0954 18.8264ZM18.2682 22.1226C18.1875 21.9859 18.1869 21.7652 18.2682 21.6273L19.9157 18.8272C19.9961 18.6903 20.1904 18.5795 20.3528 18.5795H23.6474C23.8084 18.5795 24.0035 18.6891 24.0846 18.8272L25.7318 21.6273C25.8123 21.764 25.8131 21.9847 25.7318 22.1226L24.0846 24.9226C24.0041 25.0596 23.81 25.1703 23.6474 25.1703H20.3528C20.1919 25.1703 19.9967 25.0608 19.9157 24.9226L18.2682 22.1226ZM16.3291 18.8264C16.2488 18.6901 16.3144 18.5796 16.4743 18.5796H18.7593C18.9196 18.5796 18.9845 18.6905 18.9045 18.8264L17.7618 20.7679C17.6816 20.9044 17.5514 20.904 17.4713 20.7679L16.3291 18.8264ZM26.238 22.9813C26.3183 22.845 26.4486 22.8454 26.5287 22.9813L27.6712 24.9234C27.7514 25.0597 27.686 25.1703 27.5259 25.1703H25.2408C25.0803 25.1703 25.0155 25.0593 25.0955 24.9234L26.238 22.9813ZM17.4716 22.9813C17.5518 22.845 17.6822 22.8454 17.762 22.9813L18.9047 24.9234C18.985 25.0597 18.9194 25.1703 18.7595 25.1703H16.4745C16.314 25.1703 16.2492 25.0593 16.3293 24.9234L17.4716 22.9813ZM20.7122 26.277C20.632 26.1405 20.6975 26.03 20.8576 26.03H23.1426C23.3031 26.03 23.3679 26.1409 23.288 26.277L22.1453 28.2185C22.0651 28.3549 21.9347 28.3545 21.8547 28.2185L20.7122 26.277Z" fill="#1C3775" stroke="#1C3775" stroke-width="0.4"/>
    </g>
    <g id="Halal">
        <path d="M15.8145 28.6448H18.9547L21.1751 30.8652C21.2647 30.9549 21.3823 30.9998 21.5 30.9998C21.6175 30.9998 21.7353 30.9549 21.8249 30.8652L24.0453 28.6448H27.1855C27.4392 28.6448 27.645 28.4391 27.645 28.1854V25.0452L29.8654 22.8248C30.0449 22.6453 30.0449 22.3544 29.8654 22.1749L27.645 19.9545V16.8143C27.645 16.5606 27.4392 16.3549 27.1855 16.3549H24.0453L21.8249 14.1345C21.6454 13.9552 21.3546 13.9552 21.1751 14.1345L18.9547 16.3549H15.8145C15.5608 16.3549 15.355 16.5606 15.355 16.8143V19.9545L13.1346 22.1749C12.9551 22.3544 12.9551 22.6453 13.1346 22.8248L15.355 25.0452V28.1854C15.355 28.4391 15.5608 28.6448 15.8145 28.6448ZM14.1091 22.4995L16.1392 20.4694C16.2253 20.3833 16.2737 20.2664 16.2737 20.1445V17.2735H19.1448C19.2666 17.2735 19.3836 17.2251 19.4697 17.1389L21.4998 15.1086L23.53 17.1389C23.6162 17.2251 23.7331 17.2735 23.8549 17.2735H26.726V20.1445C26.726 20.2664 26.7744 20.3833 26.8606 20.4694L28.8906 22.4995L26.8606 24.5296C26.7744 24.6157 26.726 24.7326 26.726 24.8545V27.7255H23.8549C23.7331 27.7255 23.6162 27.774 23.53 27.8601L21.4998 29.8904L19.4697 27.8601C19.3836 27.774 19.2666 27.7255 19.1448 27.7255H16.2737V24.8545C16.2737 24.7326 16.2253 24.6157 16.1392 24.5296L14.1091 22.4995Z" fill="#646D83" stroke="#646D83" stroke-width="0.3"/>
        <path d="M21.3418 25.3687C22.257 25.4136 23.2596 25.2021 23.5788 24.3431H25.7605C26.1406 24.3431 26.3564 23.906 26.1252 23.6043L25.0649 22.2204C24.9107 22.0189 24.6223 21.9808 24.4208 22.135C24.2194 22.2893 24.1813 22.5779 24.3355 22.7791L24.8296 23.4242H23.6611V20.4651C23.6611 20.2114 23.4553 20.0057 23.2016 20.0057C22.9479 20.0057 22.7421 20.2114 22.7421 20.4651V21.4988L21.8825 20.2102C21.7416 19.9991 21.4562 19.9421 21.2452 20.083C21.0341 20.2239 20.9771 20.5093 21.118 20.7203L22.7421 23.1549V23.8841C22.7421 24.3951 21.9026 24.4769 21.3873 24.4515C21.1328 24.4386 20.9182 24.6343 20.9057 24.8878C20.8932 25.1413 21.0882 25.3562 21.3418 25.3687Z" fill="#646D83" stroke="#646D83" stroke-width="0.3"/>
        <path d="M18.5702 25.3346C18.5795 25.3346 18.5883 25.3348 18.5973 25.3348C20.0217 25.3348 20.4627 24.4078 20.4961 23.9147C20.4967 23.9043 20.4971 23.894 20.4971 23.8835V20.465C20.4971 20.2113 20.2914 20.0055 20.0377 20.0055C19.7839 20.0055 19.5782 20.2113 19.5782 20.465V23.8626C19.5681 23.9416 19.4709 24.4158 18.594 24.4158H18.5739C18.5676 24.4158 17.9397 24.4102 17.8101 23.9237C17.7448 23.6786 17.4932 23.5327 17.2478 23.598C17.0027 23.6632 16.8567 23.9149 16.9221 24.1602C17.1695 25.0892 18.1108 25.3346 18.5702 25.3346Z" fill="#646D83" stroke="#646D83" stroke-width="0.3"/>
    </g>
    <g id="HalalSelected">
        <path d="M15.8145 28.6448H18.9547L21.1751 30.8652C21.2647 30.9549 21.3823 30.9998 21.5 30.9998C21.6175 30.9998 21.7353 30.9549 21.8249 30.8652L24.0453 28.6448H27.1855C27.4392 28.6448 27.645 28.4391 27.645 28.1854V25.0452L29.8654 22.8248C30.0449 22.6453 30.0449 22.3544 29.8654 22.1749L27.645 19.9545V16.8143C27.645 16.5606 27.4392 16.3549 27.1855 16.3549H24.0453L21.8249 14.1345C21.6454 13.9552 21.3546 13.9552 21.1751 14.1345L18.9547 16.3549H15.8145C15.5608 16.3549 15.355 16.5606 15.355 16.8143V19.9545L13.1346 22.1749C12.9551 22.3544 12.9551 22.6453 13.1346 22.8248L15.355 25.0452V28.1854C15.355 28.4391 15.5608 28.6448 15.8145 28.6448ZM14.1091 22.4995L16.1392 20.4694C16.2253 20.3833 16.2737 20.2664 16.2737 20.1445V17.2735H19.1448C19.2666 17.2735 19.3836 17.2251 19.4697 17.1389L21.4998 15.1086L23.53 17.1389C23.6162 17.2251 23.7331 17.2735 23.8549 17.2735H26.726V20.1445C26.726 20.2664 26.7744 20.3833 26.8606 20.4694L28.8906 22.4995L26.8606 24.5296C26.7744 24.6157 26.726 24.7326 26.726 24.8545V27.7255H23.8549C23.7331 27.7255 23.6162 27.774 23.53 27.8601L21.4998 29.8904L19.4697 27.8601C19.3836 27.774 19.2666 27.7255 19.1448 27.7255H16.2737V24.8545C16.2737 24.7326 16.2253 24.6157 16.1392 24.5296L14.1091 22.4995Z" fill="#1C3775" stroke="#1C3775" stroke-width="0.3"/>
        <path d="M21.3418 25.3687C22.257 25.4136 23.2596 25.2021 23.5788 24.3431H25.7605C26.1406 24.3431 26.3564 23.906 26.1252 23.6043L25.0649 22.2204C24.9107 22.0189 24.6223 21.9808 24.4208 22.135C24.2194 22.2893 24.1813 22.5779 24.3355 22.7791L24.8296 23.4242H23.6611V20.4651C23.6611 20.2114 23.4553 20.0057 23.2016 20.0057C22.9479 20.0057 22.7421 20.2114 22.7421 20.4651V21.4988L21.8825 20.2102C21.7416 19.9991 21.4562 19.9421 21.2452 20.083C21.0341 20.2239 20.9771 20.5093 21.118 20.7203L22.7421 23.1549V23.8841C22.7421 24.3951 21.9026 24.4769 21.3873 24.4515C21.1328 24.4386 20.9182 24.6343 20.9057 24.8878C20.8932 25.1413 21.0882 25.3562 21.3418 25.3687Z" fill="#1C3775" stroke="#1C3775" stroke-width="0.3"/>
        <path d="M18.5702 25.3346C18.5795 25.3346 18.5883 25.3348 18.5973 25.3348C20.0217 25.3348 20.4627 24.4078 20.4961 23.9147C20.4967 23.9043 20.4971 23.894 20.4971 23.8835V20.465C20.4971 20.2113 20.2914 20.0055 20.0377 20.0055C19.7839 20.0055 19.5782 20.2113 19.5782 20.465V23.8626C19.5681 23.9416 19.4709 24.4158 18.594 24.4158H18.5739C18.5676 24.4158 17.9397 24.4102 17.8101 23.9237C17.7448 23.6786 17.4932 23.5327 17.2478 23.598C17.0027 23.6632 16.8567 23.9149 16.9221 24.1602C17.1695 25.0892 18.1108 25.3346 18.5702 25.3346Z" fill="#1C3775" stroke="#1C3775" stroke-width="0.3"/>
    </g>
    <g id="Vegetarian">
        <path d="M27.2954 14.8485C25.4329 14.1774 23.3576 14.4877 21.7729 15.6743C20.1882 16.8608 19.3061 18.7646 19.4256 20.7409V21.8507C19.3448 21.7566 19.271 21.6625 19.1834 21.5749C18.0552 20.4463 16.4348 19.9611 14.8717 20.2834C14.7424 20.3098 14.6238 20.3736 14.5306 20.4669C14.4372 20.5601 14.3735 20.6789 14.3471 20.8081C14.0602 22.2052 14.4165 23.6574 15.3175 24.7628C16.2185 25.8683 17.5687 26.5106 18.995 26.5118H19.4322V28.6306C19.4322 28.871 19.5604 29.093 19.7685 29.2131C19.9766 29.3332 20.2331 29.3332 20.4412 29.2131C20.6493 29.093 20.7775 28.8709 20.7775 28.6306V21.5814C22.3975 21.8937 24.0741 21.505 25.3917 20.5118C26.9769 19.3265 27.8593 17.4229 27.7391 15.4471C27.7324 15.3147 27.6866 15.1872 27.6076 15.0806C27.5286 14.9742 27.4199 14.8934 27.2952 14.8485L27.2954 14.8485ZM19.2238 25.1597C18.2452 25.2261 17.2858 24.8662 16.5922 24.1727C15.8987 23.479 15.5388 22.5196 15.6051 21.541C16.5836 21.4747 17.5431 21.8345 18.2366 22.528C18.9303 23.2217 19.2902 24.1811 19.2238 25.1597V25.1597ZM24.6049 19.4355C23.5088 20.2584 22.099 20.5403 20.7709 20.2024C20.8276 18.84 21.4938 17.5752 22.5852 16.7577C23.6764 15.9402 25.0773 15.6564 26.4008 15.9849C26.3462 17.35 25.6789 18.6177 24.5847 19.4355H24.6049Z" fill="#646D83"/>
    </g>
    <g id="VegetarianSelected">
        <path d="M27.2954 14.8485C25.4329 14.1774 23.3576 14.4877 21.7729 15.6743C20.1882 16.8608 19.3061 18.7646 19.4256 20.7409V21.8507C19.3448 21.7566 19.271 21.6625 19.1834 21.5749C18.0552 20.4463 16.4348 19.9611 14.8717 20.2834C14.7424 20.3098 14.6238 20.3736 14.5306 20.4669C14.4372 20.5601 14.3735 20.6789 14.3471 20.8081C14.0602 22.2052 14.4165 23.6574 15.3175 24.7628C16.2185 25.8683 17.5687 26.5106 18.995 26.5118H19.4322V28.6306C19.4322 28.871 19.5604 29.093 19.7685 29.2131C19.9766 29.3332 20.2331 29.3332 20.4412 29.2131C20.6493 29.093 20.7775 28.8709 20.7775 28.6306V21.5814C22.3975 21.8937 24.0741 21.505 25.3917 20.5118C26.9769 19.3265 27.8593 17.4229 27.7391 15.4471C27.7324 15.3147 27.6866 15.1872 27.6076 15.0806C27.5286 14.9742 27.4199 14.8934 27.2952 14.8485L27.2954 14.8485ZM19.2238 25.1597C18.2452 25.2261 17.2858 24.8662 16.5922 24.1727C15.8987 23.479 15.5388 22.5196 15.6051 21.541C16.5836 21.4747 17.5431 21.8345 18.2366 22.528C18.9303 23.2217 19.2902 24.1811 19.2238 25.1597V25.1597ZM24.6049 19.4355C23.5088 20.2584 22.099 20.5403 20.7709 20.2024C20.8276 18.84 21.4938 17.5752 22.5852 16.7577C23.6764 15.9402 25.0773 15.6564 26.4008 15.9849C26.3462 17.35 25.6789 18.6177 24.5847 19.4355H24.6049Z" fill="#1C3775"/>
    </g>
    <g id="GlutenFree">
        <path d="M25.5 14.9999C25.2239 14.9999 25 15.2238 25 15.4999V17.5359C24.2393 17.6455 23.5362 18.0033 23 18.5539V14.5C23 14.2239 22.7761 14 22.5 14C22.2239 14 22 14.2239 22 14.5V18.5539C21.4639 18.0033 20.7608 17.6454 20 17.5359V15.4999C20 15.2238 19.7761 14.9999 19.5 14.9999C19.2239 14.9999 19 15.2238 19 15.4999V25C19.0013 25.8412 19.305 26.654 19.8558 27.2899C20.4065 27.9259 21.1675 28.3426 22 28.464V30C22 30.2761 22.2239 30.5 22.5 30.5C22.7761 30.5 23 30.2761 23 30V28.464C23.8323 28.3422 24.5931 27.9253 25.1438 27.2894C25.6945 26.6537 25.9983 25.841 26 25V15.4999C26 15.3673 25.9473 15.2402 25.8535 15.1464C25.7598 15.0527 25.6327 14.9999 25.5 14.9999ZM20 18.5499C20.5643 18.6659 21.0714 18.9729 21.4357 19.4192C21.8001 19.8656 21.9993 20.4238 22 21V21.554C21.4639 21.0033 20.7608 20.6455 20 20.536V18.5499ZM20 21.5499C20.5642 21.6662 21.071 21.9733 21.4353 22.4196C21.7996 22.8659 21.999 23.4239 22 24V24.554C21.4639 24.0033 20.7608 23.6455 20 23.536V21.5499ZM22 27.4499C21.4357 27.3338 20.9286 27.027 20.5643 26.5808C20.1999 26.1343 20.0007 25.5761 20 25V24.5499C20.5642 24.6662 21.071 24.9733 21.4353 25.4196C21.7996 25.8659 21.999 26.4239 22 27V27.4499ZM25 25C24.999 25.576 24.7995 26.134 24.4353 26.5803C24.0711 27.0266 23.5642 27.3337 23 27.4501V27C23.001 26.4239 23.2005 25.8659 23.5647 25.4196C23.929 24.9733 24.4358 24.6663 25 24.5499V25ZM25 23.536C24.2393 23.6455 23.5362 24.0033 23 24.554V24C23.001 23.4239 23.2005 22.8659 23.5647 22.4196C23.929 21.9733 24.4358 21.6662 25 21.5499V23.536ZM25 20.536C24.2393 20.6455 23.5362 21.0033 23 21.554V21C23.0007 20.4238 23.1999 19.8656 23.5643 19.4192C23.9286 18.9729 24.4357 18.6659 25 18.5499V20.536Z" fill="#646D83" stroke="#646D83" stroke-width="0.2"/>
    </g>
    <g id="GlutenFreeSelected">
        <path d="M25.5 14.9999C25.2239 14.9999 25 15.2238 25 15.4999V17.5359C24.2393 17.6455 23.5362 18.0033 23 18.5539V14.5C23 14.2239 22.7761 14 22.5 14C22.2239 14 22 14.2239 22 14.5V18.5539C21.4639 18.0033 20.7608 17.6454 20 17.5359V15.4999C20 15.2238 19.7761 14.9999 19.5 14.9999C19.2239 14.9999 19 15.2238 19 15.4999V25C19.0013 25.8412 19.305 26.654 19.8558 27.2899C20.4065 27.9259 21.1675 28.3426 22 28.464V30C22 30.2761 22.2239 30.5 22.5 30.5C22.7761 30.5 23 30.2761 23 30V28.464C23.8323 28.3422 24.5931 27.9253 25.1438 27.2894C25.6945 26.6537 25.9983 25.841 26 25V15.4999C26 15.3673 25.9473 15.2402 25.8535 15.1464C25.7598 15.0527 25.6327 14.9999 25.5 14.9999ZM20 18.5499C20.5643 18.6659 21.0714 18.9729 21.4357 19.4192C21.8001 19.8656 21.9993 20.4238 22 21V21.554C21.4639 21.0033 20.7608 20.6455 20 20.536V18.5499ZM20 21.5499C20.5642 21.6662 21.071 21.9733 21.4353 22.4196C21.7996 22.8659 21.999 23.4239 22 24V24.554C21.4639 24.0033 20.7608 23.6455 20 23.536V21.5499ZM22 27.4499C21.4357 27.3338 20.9286 27.027 20.5643 26.5808C20.1999 26.1343 20.0007 25.5761 20 25V24.5499C20.5642 24.6662 21.071 24.9733 21.4353 25.4196C21.7996 25.8659 21.999 26.4239 22 27V27.4499ZM25 25C24.999 25.576 24.7995 26.134 24.4353 26.5803C24.0711 27.0266 23.5642 27.3337 23 27.4501V27C23.001 26.4239 23.2005 25.8659 23.5647 25.4196C23.929 24.9733 24.4358 24.6663 25 24.5499V25ZM25 23.536C24.2393 23.6455 23.5362 24.0033 23 24.554V24C23.001 23.4239 23.2005 22.8659 23.5647 22.4196C23.929 21.9733 24.4358 21.6662 25 21.5499V23.536ZM25 20.536C24.2393 20.6455 23.5362 21.0033 23 21.554V21C23.0007 20.4238 23.1999 19.8656 23.5643 19.4192C23.9286 18.9729 24.4357 18.6659 25 18.5499V20.536Z" fill="#1C3775" stroke="#1C3775" stroke-width="0.2"/>
    </g>
    <g id="LactoseFree">
        <path d="M22.6889 16.4844H18.9388C18.5361 16.4844 18.2086 16.1726 18.2086 15.7889C18.2086 15.7667 18.2094 15.7444 18.2117 15.7225L18.2434 14.7053C18.2429 14.6956 18.2425 14.6852 18.2429 14.675C18.2545 14.2967 18.5753 14 18.9728 14H22.655C23.0579 14 23.3852 14.3119 23.3852 14.6956V14.7175L23.4165 15.7372C23.4178 15.7475 23.4187 15.7577 23.4192 15.768C23.4245 15.9478 23.3581 16.12 23.2323 16.2538C23.0988 16.3948 22.9084 16.4786 22.7089 16.4835H22.6893L22.6889 16.4844ZM18.869 14.6844V14.6951L18.8359 15.7546C18.8359 15.7648 18.8346 15.7751 18.8337 15.785C18.8337 15.8224 18.8788 15.8599 18.9395 15.8599H22.6965C22.7274 15.859 22.7586 15.8464 22.7783 15.8251C22.7866 15.8162 22.7916 15.8073 22.7938 15.7979C22.7938 15.7943 22.7938 15.7911 22.7933 15.7877L22.7604 14.7272V14.6932C22.7586 14.6608 22.7139 14.6251 22.6551 14.6251H18.9729C18.9198 14.6251 18.8774 14.6545 18.869 14.6843L18.869 14.6844Z" fill="#646D83" stroke="#646D83" stroke-width="0.4"/>
        <path d="M23.0805 17.5127C22.9614 17.5127 22.848 17.4446 22.7958 17.329C22.6803 17.0734 22.6009 16.8543 22.5456 16.6402C22.5028 16.4733 22.6031 16.303 22.7704 16.2601C22.9377 16.2173 23.1076 16.3177 23.1505 16.4849C23.1964 16.6634 23.2643 16.8498 23.3646 17.072C23.4355 17.229 23.366 17.4142 23.2085 17.485C23.1665 17.5038 23.1228 17.5127 23.08 17.5127L23.0805 17.5127Z" fill="#646D83" stroke="#646D83" stroke-width="0.4"/>
        <path d="M23.6408 29.7303H17.8369C17.434 29.7303 17.1067 29.4183 17.1067 29.0348C17.1067 29.0218 17.1067 29.0089 17.108 28.9959L17.0017 20.9127C17.0005 20.9024 17 20.8917 17 20.8811C17 20.8524 17.0009 20.8244 17.0044 20.7963C17.0821 19.3937 17.5554 18.472 17.973 17.6588C18.1813 17.2528 18.3779 16.8696 18.4771 16.4842C18.5199 16.3173 18.6899 16.2165 18.8571 16.2593C19.0239 16.3022 19.1248 16.4726 19.0819 16.6394C18.9655 17.0927 18.7532 17.5058 18.5283 17.9438C18.1188 18.741 17.6954 19.5654 17.6272 20.8413C17.6272 20.848 17.6263 20.8546 17.6254 20.8614V20.8734L17.7324 29.0005C17.7324 29.0103 17.7324 29.0197 17.7316 29.0296V29.0354C17.7316 29.0683 17.7766 29.1053 17.8372 29.1053H23.7902C23.8665 29.1053 23.8901 29.0647 23.8946 29.055C23.8946 29.0478 23.8942 29.0407 23.8946 29.0335L23.9718 23.1573C23.974 22.9847 24.1154 22.846 24.2881 22.8491C24.4607 22.8513 24.5985 22.9932 24.5963 23.1653L24.5192 29.0289C24.5277 29.1939 24.4642 29.3622 24.3434 29.4938C24.2038 29.6459 24.007 29.7293 23.7902 29.7293H23.6408L23.6408 29.7303Z" fill="#646D83" stroke="#646D83" stroke-width="0.4"/>
        <path d="M22.2696 19.5882C21.4983 19.5882 20.8933 19.3786 20.354 19.1917C19.469 18.8847 18.8293 18.6635 17.8009 19.5097C17.6676 19.6195 17.4708 19.6003 17.3616 19.4669C17.2518 19.3339 17.271 19.1368 17.4044 19.0276C18.7034 17.9587 19.6045 18.271 20.5588 18.6019C21.1231 18.7973 21.7062 18.9994 22.4672 18.9588C22.6399 18.9494 22.7867 19.0815 22.7961 19.2542C22.8053 19.4268 22.6734 19.5735 22.5007 19.5824C22.4222 19.5865 22.3455 19.5887 22.2701 19.5887L22.2696 19.5882Z" fill="#646D83" stroke="#646D83" stroke-width="0.4"/>
        <path d="M27.1188 23.369C24.9788 23.369 23.2375 21.6278 23.2375 19.4878C23.2375 17.3477 24.9787 15.6065 27.1188 15.6065C29.2588 15.6065 31 17.3477 31 19.4878C31 21.6278 29.2587 23.369 27.1188 23.369ZM27.1188 16.2313C25.3232 16.2313 23.8623 17.6922 23.8623 19.4878C23.8623 21.2833 25.3232 22.7442 27.1188 22.7442C28.9143 22.7442 30.3752 21.2832 30.3752 19.4878C30.3752 17.6922 28.9142 16.2313 27.1188 16.2313Z" fill="#646D83" stroke="#646D83" stroke-width="0.4"/>
        <path d="M28.5405 21.2217C28.4606 21.2217 28.3808 21.1913 28.3197 21.1302L25.4762 18.2868C25.3544 18.1649 25.3544 17.9669 25.4762 17.8451C25.598 17.7232 25.796 17.7232 25.9179 17.8451L28.7613 20.6885C28.8831 20.8104 28.8831 21.0084 28.7613 21.1302C28.7002 21.1913 28.6204 21.2217 28.5405 21.2217Z" fill="#646D83"/>
        <path d="M25.697 21.2217C25.6172 21.2217 25.5373 21.1913 25.4762 21.1302C25.3544 21.0084 25.3544 20.8104 25.4762 20.6885L28.3197 17.8451C28.4419 17.7232 28.6395 17.7232 28.7613 17.8451C28.8831 17.9669 28.8831 18.1649 28.7613 18.2868L25.9179 21.1302C25.8568 21.1913 25.7769 21.2217 25.697 21.2217Z" fill="#646D83" stroke="#646D83" stroke-width="0.4"/>
    </g>
    <g id="LactoseFreeSelected">
        <path d="M22.6889 16.4844H18.9388C18.5361 16.4844 18.2086 16.1726 18.2086 15.7889C18.2086 15.7667 18.2094 15.7444 18.2117 15.7225L18.2434 14.7053C18.2429 14.6956 18.2425 14.6852 18.2429 14.675C18.2545 14.2967 18.5753 14 18.9728 14H22.655C23.0579 14 23.3852 14.3119 23.3852 14.6956V14.7175L23.4165 15.7372C23.4178 15.7475 23.4187 15.7577 23.4192 15.768C23.4245 15.9478 23.3581 16.12 23.2323 16.2538C23.0988 16.3948 22.9084 16.4786 22.7089 16.4835H22.6893L22.6889 16.4844ZM18.869 14.6844V14.6951L18.8359 15.7546C18.8359 15.7648 18.8346 15.7751 18.8337 15.785C18.8337 15.8224 18.8788 15.8599 18.9395 15.8599H22.6965C22.7274 15.859 22.7586 15.8464 22.7783 15.8251C22.7866 15.8162 22.7916 15.8073 22.7938 15.7979C22.7938 15.7943 22.7938 15.7911 22.7933 15.7877L22.7604 14.7272V14.6932C22.7586 14.6608 22.7139 14.6251 22.6551 14.6251H18.9729C18.9198 14.6251 18.8774 14.6545 18.869 14.6843L18.869 14.6844Z" fill="#1C3775" stroke="#1C3775" stroke-width="0.4"/>
        <path d="M23.0805 17.5127C22.9614 17.5127 22.848 17.4446 22.7958 17.329C22.6803 17.0734 22.6009 16.8543 22.5456 16.6402C22.5028 16.4733 22.6031 16.303 22.7704 16.2601C22.9377 16.2173 23.1076 16.3177 23.1505 16.4849C23.1964 16.6634 23.2643 16.8498 23.3646 17.072C23.4355 17.229 23.366 17.4142 23.2085 17.485C23.1665 17.5038 23.1228 17.5127 23.08 17.5127L23.0805 17.5127Z" fill="#1C3775" stroke="#1C3775" stroke-width="0.4"/>
        <path d="M23.6408 29.7303H17.8369C17.434 29.7303 17.1067 29.4183 17.1067 29.0348C17.1067 29.0218 17.1067 29.0089 17.108 28.9959L17.0017 20.9127C17.0005 20.9024 17 20.8917 17 20.8811C17 20.8524 17.0009 20.8244 17.0044 20.7963C17.0821 19.3937 17.5554 18.472 17.973 17.6588C18.1813 17.2528 18.3779 16.8696 18.4771 16.4842C18.5199 16.3173 18.6899 16.2165 18.8571 16.2593C19.0239 16.3022 19.1248 16.4726 19.0819 16.6394C18.9655 17.0927 18.7532 17.5058 18.5283 17.9438C18.1188 18.741 17.6954 19.5654 17.6272 20.8413C17.6272 20.848 17.6263 20.8546 17.6254 20.8614V20.8734L17.7324 29.0005C17.7324 29.0103 17.7324 29.0197 17.7316 29.0296V29.0354C17.7316 29.0683 17.7766 29.1053 17.8372 29.1053H23.7902C23.8665 29.1053 23.8901 29.0647 23.8946 29.055C23.8946 29.0478 23.8942 29.0407 23.8946 29.0335L23.9718 23.1573C23.974 22.9847 24.1154 22.846 24.2881 22.8491C24.4607 22.8513 24.5985 22.9932 24.5963 23.1653L24.5192 29.0289C24.5277 29.1939 24.4642 29.3622 24.3434 29.4938C24.2038 29.6459 24.007 29.7293 23.7902 29.7293H23.6408L23.6408 29.7303Z" fill="#1C3775" stroke="#1C3775" stroke-width="0.4"/>
        <path d="M22.2696 19.5882C21.4983 19.5882 20.8933 19.3786 20.354 19.1917C19.469 18.8847 18.8293 18.6635 17.8009 19.5097C17.6676 19.6195 17.4708 19.6003 17.3616 19.4669C17.2518 19.3339 17.271 19.1368 17.4044 19.0276C18.7034 17.9587 19.6045 18.271 20.5588 18.6019C21.1231 18.7973 21.7062 18.9994 22.4672 18.9588C22.6399 18.9494 22.7867 19.0815 22.7961 19.2542C22.8053 19.4268 22.6734 19.5735 22.5007 19.5824C22.4222 19.5865 22.3455 19.5887 22.2701 19.5887L22.2696 19.5882Z" fill="#1C3775" stroke="#1C3775" stroke-width="0.4"/>
        <path d="M27.1188 23.369C24.9788 23.369 23.2375 21.6278 23.2375 19.4878C23.2375 17.3477 24.9787 15.6065 27.1188 15.6065C29.2588 15.6065 31 17.3477 31 19.4878C31 21.6278 29.2587 23.369 27.1188 23.369ZM27.1188 16.2313C25.3232 16.2313 23.8623 17.6922 23.8623 19.4878C23.8623 21.2833 25.3232 22.7442 27.1188 22.7442C28.9143 22.7442 30.3752 21.2832 30.3752 19.4878C30.3752 17.6922 28.9142 16.2313 27.1188 16.2313Z" fill="#1C3775" stroke="#1C3775" stroke-width="0.4"/>
        <path d="M28.5405 21.2217C28.4606 21.2217 28.3808 21.1913 28.3197 21.1302L25.4762 18.2868C25.3544 18.1649 25.3544 17.9669 25.4762 17.8451C25.598 17.7232 25.796 17.7232 25.9179 17.8451L28.7613 20.6885C28.8831 20.8104 28.8831 21.0084 28.7613 21.1302C28.7002 21.1913 28.6204 21.2217 28.5405 21.2217Z" fill="#1C3775" stroke="#1C3775" stroke-width="0.4"/>
        <path d="M25.697 21.2217C25.6172 21.2217 25.5373 21.1913 25.4762 21.1302C25.3544 21.0084 25.3544 20.8104 25.4762 20.6885L28.3197 17.8451C28.4419 17.7232 28.6395 17.7232 28.7613 17.8451C28.8831 17.9669 28.8831 18.1649 28.7613 18.2868L25.9179 21.1302C25.8568 21.1913 25.7769 21.2217 25.697 21.2217Z" fill="#1C3775" stroke="#1C3775" stroke-width="0.4"/>
    </g>
    <g id="Serves">
        <path fill="none" d="M28.8 24C30.0673 24.9469 31.2 27.331 31.2 28.7999C31.2 29.2576 30.8661 29.6286 30.4542 29.6286H30M25.2 20.1188C26.0198 19.6445 26.5714 18.7581 26.5714 17.7429C26.5714 16.7276 26.0198 15.8412 25.2 15.3669M12.7458 29.6286H25.8828C26.2947 29.6286 26.6286 29.2576 26.6286 28.7999C26.6286 25.9233 24.2253 23.5914 19.3143 23.5914C14.4033 23.5914 12 25.9233 12 28.7999C12 29.2576 12.3339 29.6286 12.7458 29.6286ZM22.0571 17.7429C22.0571 19.2577 20.8291 20.4857 19.3143 20.4857C17.7994 20.4857 16.5714 19.2577 16.5714 17.7429C16.5714 16.228 17.7994 15 19.3143 15C20.8291 15 22.0571 16.228 22.0571 17.7429Z" stroke="#1C3775" stroke-width="1.5" stroke-linecap="round"/>
    </g>
    <g id="Tag" fill="none">
        <path d="M21.5218 16.0794C21.6415 15.9597 21.8148 15.9083 21.9867 15.9415L26.2242 16.7599C26.4504 16.8036 26.6313 16.9844 26.6749 17.2106L27.4933 21.4481C27.5265 21.62 27.4751 21.7933 27.3554 21.913L20.3884 28.88C20.082 29.1864 19.5725 29.1736 19.2503 28.8514L14.5834 24.1845C14.2612 23.8624 14.2484 23.3528 14.5548 23.0464L21.5218 16.0794Z" stroke="white" stroke-width="1.5"/>
        <path d="M23.8663 19.5685C23.5147 19.2168 23.0378 19.0193 22.5405 19.0193C22.0432 19.0193 21.5663 19.2169 21.2147 19.5685C20.863 19.9201 20.6655 20.397 20.6655 20.8944C20.6655 21.3916 20.863 21.8685 21.2147 22.2201C21.5663 22.5718 22.0433 22.7693 22.5404 22.7693C23.0378 22.7693 23.5147 22.5718 23.8663 22.2201C24.2179 21.8685 24.4155 21.3916 24.4155 20.8943C24.4155 20.397 24.218 19.9201 23.8663 19.5685ZM22.0986 21.3362L22.0985 21.3363C21.9813 21.2191 21.9155 21.06 21.9155 20.8943C21.9155 20.7286 21.9813 20.5696 22.0986 20.4524C22.2158 20.3352 22.3747 20.2693 22.5404 20.2693C22.7062 20.2693 22.8652 20.3352 22.9824 20.4524C23.0996 20.5696 23.1655 20.7286 23.1655 20.8944C23.1655 21.0601 23.0996 21.219 22.9824 21.3362C22.8652 21.4535 22.7062 21.5193 22.5405 21.5193C22.3748 21.5193 22.2157 21.4535 22.0985 21.3363L22.0986 21.3362Z" fill="white"/>
    </g>
    <g id="Scales" fill="none">
        <path d="M25.1182 19.0418C26.0115 19.0418 26.8683 18.6869 27.4999 18.0553C28.1316 17.4236 28.4863 16.5669 28.4863 15.6736C28.4863 15.495 28.4154 15.3235 28.2891 15.1972C28.1628 15.0709 27.9914 15 27.8128 15H15.6873C15.5087 15 15.3372 15.0709 15.2109 15.1972C15.0846 15.3235 15.0137 15.495 15.0137 15.6736C15.0137 16.5669 15.3685 17.4236 16.0001 18.0553C16.6318 18.6869 17.4885 19.0418 18.3818 19.0418H19.0555V20.3891L17.0346 20.389C16.8769 20.3859 16.7232 20.4381 16.6002 20.5365C16.477 20.635 16.3925 20.7735 16.3609 20.928L15.0136 27.6643H15.0137C14.9726 27.8649 15.0251 28.0732 15.1561 28.2304C15.2872 28.3877 15.4826 28.4768 15.6873 28.4726H27.8127C28.0174 28.4768 28.2128 28.3877 28.3439 28.2304C28.4749 28.0732 28.5274 27.8649 28.4863 27.6643L27.139 20.928H27.1391C27.1075 20.7735 27.023 20.635 26.8998 20.5365C26.7768 20.4381 26.6231 20.3859 26.4654 20.389H24.4445V19.0418L25.1182 19.0418ZM16.4754 16.3472H27.0245C26.8851 16.7414 26.627 17.0827 26.2855 17.3239C25.9442 17.5653 25.5363 17.6947 25.1182 17.6945H18.3816C17.9636 17.6947 17.5557 17.5653 17.2143 17.3239C16.8728 17.0827 16.6147 16.7414 16.4753 16.3472H16.4754ZM26.9908 27.1256H16.5089L17.5867 21.7364H25.9128L26.9908 27.1256ZM23.097 20.389H20.4024V19.0418H23.0969L23.097 20.389Z" fill="white"/>
        <path d="M21.75 22.4098C21.214 22.4098 20.7 22.6228 20.3211 23.0018C19.942 23.3808 19.7291 23.8949 19.7291 24.4308C19.7291 24.9668 19.942 25.4808 20.3211 25.8598C20.7 26.2387 21.214 26.4517 21.75 26.4517C22.286 26.4517 22.8001 26.2387 23.179 25.8598C23.558 25.4808 23.7709 24.9668 23.7709 24.4308C23.7709 23.8949 23.558 23.3808 23.179 23.0018C22.8001 22.6228 22.286 22.4098 21.75 22.4098ZM21.75 25.1044V25.1045C21.5714 25.1045 21.4 25.0334 21.2737 24.9071C21.1474 24.7808 21.0764 24.6095 21.0764 24.4308C21.0764 24.2521 21.1474 24.0808 21.2737 23.9545C21.4 23.8281 21.5714 23.7572 21.75 23.7572C21.9287 23.7572 22.1001 23.8281 22.2264 23.9545C22.3527 24.0808 22.4236 24.2521 22.4236 24.4308C22.4236 24.6095 22.3527 24.7808 22.2264 24.9071C22.1001 25.0334 21.9287 25.1045 21.75 25.1045V25.1044Z" fill="white"/>
    </g>
    <g id="Pot" fill="none">
        <path d="M15.98 20.28L15.98 26.8801C15.98 28.1923 17.0438 29.2561 18.356 29.2561H26.276C27.5882 29.2561 28.652 28.1923 28.652 26.8801V20.28" stroke="white" stroke-width="1.5" stroke-linecap="round" stroke-linejoin="round"/>
        <path d="M14 20.28L30.5 20.28" stroke="white" stroke-width="1.5" stroke-linecap="round"/>
        <path d="M19.28 17.64L19.28 16.32" stroke="white" stroke-width="1.5" stroke-linecap="round"/>
        <path d="M22.58 17.64L22.58 15" stroke="white" stroke-width="1.5" stroke-linecap="round"/>
        <path d="M25.88 17.64L25.88 16.32" stroke="white" stroke-width="1.5" stroke-linecap="round"/>
    </g>
    <g id="Shape" fill="none">
        <path d="M19 29L19 17" stroke="white" stroke-width="1.5" stroke-linecap="round"/>
        <path d="M25 29L25 17" stroke="white" stroke-width="1.5" stroke-linecap="round"/>
        <path d="M22 29L22 14" stroke="white" stroke-width="1.5" stroke-linecap="round"/>
    </g>
    <g id="CarouselArrow" fill="none">
        <circle cx="22" cy="22" r="15" stroke="#1C3775" stroke-width="2"/>
        <path d="M21 19L24 22L21 25" stroke="#1C3775" stroke-width="2" stroke-linecap="round" stroke-linejoin="round"/>
    </g>
    <g id="CarouselArrowWhite" fill="none">
        <circle cx="22" cy="22" r="15" stroke="#ffffff" stroke-width="2"/>
        <path d="M21 19L24 22L21 25" stroke="#ffffff" stroke-width="2" stroke-linecap="round" stroke-linejoin="round"/>
    </g>
    <g id="CarouselArrowThemeWheat" fill="none">
        <circle cx="22" cy="22" r="15" stroke="#674D04" stroke-width="2"/>
        <path d="M21 19L24 22L21 25" stroke="#674D04" stroke-width="2" stroke-linecap="round" stroke-linejoin="round"/>
    </g>
    <g id="CarouselArrowThemeProtein" fill="none">
        <circle cx="22" cy="22" r="15" stroke="#5B3427" stroke-width="2"/>
        <path d="M21 19L24 22L21 25" stroke="#5B3427" stroke-width="2" stroke-linecap="round" stroke-linejoin="round"/>
    </g>
    <g id="CarouselArrowFade" fill="none">
        <circle cx="22" cy="22" r="15" stroke="#E5E8EB" stroke-width="2"/>
        <path d="M21 19L24 22L21 25" stroke="#E5E8EB" stroke-width="2" stroke-linecap="round" stroke-linejoin="round"/>
    </g>
    <g id="CarouselArrowGreen" fill="none">
        <circle cx="22" cy="22" r="15" stroke="#2CA737" stroke-width="2"/>
        <path d="M21 19L24 22L21 25" stroke="#2CA737" stroke-width="2" stroke-linecap="round" stroke-linejoin="round"/>
    </g>
    <g id="Play" fill="none">
        <circle cx="22" cy="22" r="15" stroke="white" stroke-width="2"/>
        <path d="M25.56 21.5697C26.1456 21.9091 26.1477 22.336 25.56 22.7197L21.0184 25.9047C20.4478 26.2213 20.0602 26.0343 20.0195 25.3491L20.0002 18.683C19.9874 18.0519 20.4874 17.8736 20.9638 18.1762L25.56 21.5697Z" stroke="white" stroke-width="2"/>
    </g>
    <g id="SmallPlay" fill="none">
        <circle cx="22" cy="22" r="8" fill="#1C3775"/>
        <path d="M23.78 21.7639C24.0728 21.9331 24.0739 22.1459 23.78 22.3373L21.5092 23.9255C21.2239 24.0834 21.0301 23.9901 21.0098 23.6485L21.0001 20.3244C20.9937 20.0097 21.2437 19.9208 21.4819 20.0717L23.78 21.7639Z" fill="white"/>
    </g>
    <g id="StdClose" fill="none">
        <path d="M29 15L15 29M29 29L15 15" stroke="white" stroke-width="2" stroke-linecap="round"/>
    </g>
    <g id="Filter" fill="none">
        <path d="M17.8462 21.6923H26.1538M16 18H28M20.6154 25.3846H23.3846" stroke="white" stroke-width="1.5" stroke-linecap="round" stroke-linejoin="round"/>
    </g>
    <g id="CircleTick" fill="none">
        <path fill-rule="evenodd" clip-rule="evenodd" d="M21.6 11C15.7458 11 11 15.7458 11 21.6C11 27.4542 15.7458 32.2 21.6 32.2C27.4542 32.2 32.2 27.4542 32.2 21.6C32.2 15.7458 27.4542 11 21.6 11ZM13 21.6C13 16.8504 16.8504 13 21.6 13C26.3496 13 30.2 16.8504 30.2 21.6C30.2 26.3496 26.3496 30.2 21.6 30.2C16.8504 30.2 13 26.3496 13 21.6ZM26.1092 19.7051C26.4986 19.3135 26.4968 18.6803 26.1052 18.2909C25.7136 17.9015 25.0804 17.9033 24.691 18.2949L20.6668 22.3418L19.3026 20.9951C18.9096 20.6071 18.2764 20.6112 17.8884 21.0043C17.5004 21.3973 17.5045 22.0305 17.8976 22.4185L19.9709 24.4651C20.3629 24.8521 20.9941 24.8491 21.3825 24.4585L26.1092 19.7051Z" fill="#1C3775"/>
    </g>
    <g id="Search" fill="none">
        <path d="M31 31L25 25M27 20C27 23.866 23.866 27 20 27C16.134 27 13 23.866 13 20C13 16.134 16.134 13 20 13C23.866 13 27 16.134 27 20Z" stroke="#646D83" stroke-width="2" stroke-linecap="round" stroke-linejoin="round"/>
    </g>
    <g id="SearchWhite" fill="none">
        <path d="M31 31L25 25M27 20C27 23.866 23.866 27 20 27C16.134 27 13 23.866 13 20C13 16.134 16.134 13 20 13C23.866 13 27 16.134 27 20Z" stroke="#ffffff" stroke-width="2" stroke-linecap="round" stroke-linejoin="round"/>
    </g>
    <g id="CircleArrow" fill="none">
        <circle cx="22" cy="22" r="16" fill="white"/>
        <path d="M21 19L24 22L21 25" stroke="#1C3775" stroke-width="2" stroke-linecap="round" stroke-linejoin="round"/>
    </g>
    <g id="ShowHideArrow" fill="none">
        <path d="M26.6 20L21.8 24.8L17 20" stroke="#1C3775" stroke-width="2" stroke-linecap="round" stroke-linejoin="round"/>
    </g>
    <g id="ShowHideArrowUp" fill="none">
        <path d="M26.6 24L21.8 19.2L17 24" stroke="#1C3775" stroke-width="2" stroke-linecap="round" stroke-linejoin="round"/>
    </g>
    <g id="ShowHideArrowRight" fill="none">
        <path d="M20.2 17L25 21.8L20.2 26.6" stroke="#1C3775" stroke-width="2" stroke-linecap="round" stroke-linejoin="round"/>
    </g>
    <g id="ShowHideArrowLeft" fill="none">
        <path d="M23.8 17L19 21.8L23.8 26.6" stroke="#1C3775" stroke-width="2" stroke-linecap="round" stroke-linejoin="round"/>
    </g>
    <g id="Home" fill="none">
        <path fill-rule="evenodd" clip-rule="evenodd" d="M13.2975 21.0877C13.0992 21.2556 13 21.4768 13 21.6904C13 22.0872 13.2975 22.4229 13.7858 22.4229C14.0223 22.4229 14.2283 22.3008 14.4114 22.1406L15.2888 21.4081V28.5111C15.2888 29.6403 15.9678 30.304 17.1275 30.304H27.4501C28.6097 30.304 29.2888 29.6403 29.2888 28.5111V21.3624L30.2195 22.1406C30.4026 22.3008 30.6086 22.4229 30.8452 22.4229C31.2877 22.4229 31.6234 22.1482 31.6234 21.7133C31.6234 21.4539 31.5242 21.2479 31.3258 21.0877L29.2888 19.3711V16.1286C29.2888 15.7853 29.0675 15.564 28.7242 15.564H28.2344C27.8987 15.564 27.6942 15.7853 27.6942 16.1286V17.9062L23.3912 14.412C22.7351 13.8627 21.9111 13.8627 21.2474 14.412L13.2975 21.0877ZM27.0533 28.8087H24.5051H17.5242C17.0436 28.8087 16.7842 28.5416 16.7842 28.061V20.1493L21.9951 15.7853C22.201 15.6022 22.4376 15.6022 22.6436 15.7853L27.7934 20.1035V28.061C27.7934 28.5416 27.534 28.8087 27.0533 28.8087Z" fill="#646D83"/>
    </g>
    <g id="HomeSelected" fill="none">
        <path fill-rule="evenodd" clip-rule="evenodd" d="M13.2975 21.0877C13.0992 21.2556 13 21.4768 13 21.6904C13 22.0872 13.2975 22.4229 13.7858 22.4229C14.0223 22.4229 14.2283 22.3008 14.4114 22.1406L15.2888 21.4081V28.5111C15.2888 29.6403 15.9678 30.304 17.1275 30.304H27.4501C28.6097 30.304 29.2888 29.6403 29.2888 28.5111V21.3624L30.2195 22.1406C30.4026 22.3008 30.6086 22.4229 30.8452 22.4229C31.2877 22.4229 31.6234 22.1482 31.6234 21.7133C31.6234 21.4539 31.5242 21.2479 31.3258 21.0877L29.2888 19.3711V16.1286C29.2888 15.7853 29.0675 15.564 28.7242 15.564H28.2344C27.8987 15.564 27.6942 15.7853 27.6942 16.1286V17.9062L23.3912 14.412C22.7351 13.8627 21.9111 13.8627 21.2474 14.412L13.2975 21.0877ZM27.0533 28.8087H24.5051H17.5242C17.0436 28.8087 16.7842 28.5416 16.7842 28.061V20.1493L21.9951 15.7853C22.201 15.6022 22.4376 15.6022 22.6436 15.7853L27.7934 20.1035V28.061C27.7934 28.5416 27.534 28.8087 27.0533 28.8087Z" fill="#1C3775"/>
    </g>
    <g id="Favourites" fill="none">
        <path fill-rule="evenodd" clip-rule="evenodd" d="M16.2386 16.9885C17.5566 15.6705 19.6935 15.6705 21.0115 16.9885L22.0001 17.977L22.9886 16.9885C24.3066 15.6705 26.4435 15.6705 27.7615 16.9885C29.0796 18.3065 29.0796 20.4434 27.7615 21.7615L22.0001 27.5229L16.2386 21.7615C14.9206 20.4434 14.9206 18.3065 16.2386 16.9885Z" stroke="#646D83" stroke-width="1.5" stroke-linecap="round"/>
    </g>
    <g id="FavouritesSelected" fill="none">
        <path fill-rule="evenodd" clip-rule="evenodd" d="M16.2386 16.9885C17.5566 15.6705 19.6935 15.6705 21.0115 16.9885L22.0001 17.977L22.9886 16.9885C24.3066 15.6705 26.4435 15.6705 27.7615 16.9885C29.0796 18.3065 29.0796 20.4434 27.7615 21.7615L22.0001 27.5229L16.2386 21.7615C14.9206 20.4434 14.9206 18.3065 16.2386 16.9885Z" stroke="#1C3775" stroke-width="1.5" stroke-linecap="round"/>
    </g>
    <g id="Profile" fill="none">
        <path d="M15 28.5843C15 25.7527 17.3657 23.4571 22.2 23.4571C27.0343 23.4571 29.4 25.7527 29.4 28.5843C29.4 29.0348 29.0713 29.4 28.6659 29.4H15.7341C15.3287 29.4 15 29.0348 15 28.5843Z" stroke="#646D83" stroke-width="1.5"/>
        <path d="M24.9 17.7C24.9 19.1912 23.6912 20.4 22.2 20.4C20.7088 20.4 19.5 19.1912 19.5 17.7C19.5 16.2088 20.7088 15 22.2 15C23.6912 15 24.9 16.2088 24.9 17.7Z" stroke="#646D83" stroke-width="1.5"/>
    </g>
    <g id="ProfileWhite" fill="none">
        <path d="M15 28.5843C15 25.7527 17.3657 23.4571 22.2 23.4571C27.0343 23.4571 29.4 25.7527 29.4 28.5843C29.4 29.0348 29.0713 29.4 28.6659 29.4H15.7341C15.3287 29.4 15 29.0348 15 28.5843Z" stroke="#ffffff" stroke-width="1.5"/>
        <path d="M24.9 17.7C24.9 19.1912 23.6912 20.4 22.2 20.4C20.7088 20.4 19.5 19.1912 19.5 17.7C19.5 16.2088 20.7088 15 22.2 15C23.6912 15 24.9 16.2088 24.9 17.7Z" stroke="#ffffff" stroke-width="1.5"/>
    </g>
    <g id="ProfileSelected" fill="none">
        <path d="M15 28.5843C15 25.7527 17.3657 23.4571 22.2 23.4571C27.0343 23.4571 29.4 25.7527 29.4 28.5843C29.4 29.0348 29.0713 29.4 28.6659 29.4H15.7341C15.3287 29.4 15 29.0348 15 28.5843Z" stroke="#1C3775" stroke-width="1.5"/>
        <path d="M24.9 17.7C24.9 19.1912 23.6912 20.4 22.2 20.4C20.7088 20.4 19.5 19.1912 19.5 17.7C19.5 16.2088 20.7088 15 22.2 15C23.6912 15 24.9 16.2088 24.9 17.7Z" stroke="#1C3775" stroke-width="1.5"/>
    </g>
    <g id="Preferences" fill="none">
        <path d="M20.409 15.1526C20.7821 13.6158 22.9679 13.6158 23.341 15.1526C23.582 16.1454 24.7194 16.6166 25.5918 16.085C26.9424 15.2621 28.4879 16.8076 27.665 18.1582C27.1334 19.0306 27.6046 20.168 28.5974 20.409C30.1342 20.7821 30.1342 22.9679 28.5974 23.341C27.6046 23.582 27.1334 24.7194 27.665 25.5918C28.4879 26.9424 26.9424 28.4879 25.5918 27.665C24.7194 27.1334 23.582 27.6046 23.341 28.5974C22.9679 30.1342 20.7821 30.1342 20.409 28.5974C20.168 27.6046 19.0306 27.1334 18.1582 27.665C16.8076 28.4879 15.2621 26.9424 16.085 25.5918C16.6166 24.7194 16.1454 23.582 15.1526 23.341C13.6158 22.9679 13.6158 20.7821 15.1526 20.409C16.1454 20.168 16.6166 19.0306 16.085 18.1582C15.2621 16.8076 16.8076 15.2621 18.1582 16.085C19.0306 16.6166 20.168 16.1454 20.409 15.1526Z" stroke="#646D83" stroke-width="1.5" stroke-linecap="round" stroke-linejoin="round"/>
        <path d="M24.5 21.875C24.5 23.3247 23.3247 24.5 21.875 24.5C20.4253 24.5 19.25 23.3247 19.25 21.875C19.25 20.4253 20.4253 19.25 21.875 19.25C23.3247 19.25 24.5 20.4253 24.5 21.875Z" stroke="#646D83" stroke-width="1.5" stroke-linecap="round" stroke-linejoin="round"/>
    </g>
    <g id="PreferencesSelected" fill="none">
        <path d="M20.409 15.1526C20.7821 13.6158 22.9679 13.6158 23.341 15.1526C23.582 16.1454 24.7194 16.6166 25.5918 16.085C26.9424 15.2621 28.4879 16.8076 27.665 18.1582C27.1334 19.0306 27.6046 20.168 28.5974 20.409C30.1342 20.7821 30.1342 22.9679 28.5974 23.341C27.6046 23.582 27.1334 24.7194 27.665 25.5918C28.4879 26.9424 26.9424 28.4879 25.5918 27.665C24.7194 27.1334 23.582 27.6046 23.341 28.5974C22.9679 30.1342 20.7821 30.1342 20.409 28.5974C20.168 27.6046 19.0306 27.1334 18.1582 27.665C16.8076 28.4879 15.2621 26.9424 16.085 25.5918C16.6166 24.7194 16.1454 23.582 15.1526 23.341C13.6158 22.9679 13.6158 20.7821 15.1526 20.409C16.1454 20.168 16.6166 19.0306 16.085 18.1582C15.2621 16.8076 16.8076 15.2621 18.1582 16.085C19.0306 16.6166 20.168 16.1454 20.409 15.1526Z" stroke="#1C3775" stroke-width="1.5" stroke-linecap="round" stroke-linejoin="round"/>
        <path d="M24.5 21.875C24.5 23.3247 23.3247 24.5 21.875 24.5C20.4253 24.5 19.25 23.3247 19.25 21.875C19.25 20.4253 20.4253 19.25 21.875 19.25C23.3247 19.25 24.5 20.4253 24.5 21.875Z" stroke="#1C3775" stroke-width="1.5" stroke-linecap="round" stroke-linejoin="round"/>
    </g>
    <g id="EmptyHeart" fill="none">
        <path fill-rule="evenodd" clip-rule="evenodd" d="M14.318 15.318C16.0754 13.5607 18.9246 13.5607 20.682 15.318L22 16.636L23.318 15.318C25.0754 13.5607 27.9246 13.5607 29.682 15.318C31.4393 17.0754 31.4393 19.9246 29.682 21.682L22 29.364L14.318 21.682C12.5607 19.9246 12.5607 17.0754 14.318 15.318Z" stroke="white" stroke-width="2" stroke-linecap="round"/>
    </g>
    <g id="FullHeart">
        <path fill-rule="evenodd" clip-rule="evenodd" d="M14.318 15.318C16.0754 13.5607 18.9246 13.5607 20.682 15.318L22 16.636L23.318 15.318C25.0754 13.5607 27.9246 13.5607 29.682 15.318C31.4393 17.0754 31.4393 19.9246 29.682 21.682L22 29.364L14.318 21.682C12.5607 19.9246 12.5607 17.0754 14.318 15.318Z" fill="white" stroke="white" stroke-width="2" stroke-linecap="round"/>
    </g>
</svg>